<svg width="30" height="30" viewBox="0 0 30 30" fill="none" xmlns="http://www.w3.org/2000/svg">
<path d="M26.25 18.75L22.7125 15.2125M16.25 21.25H8.75M11.25 16.25H8.75M16.25 12.5C16.25 13.2417 16.4699 13.9667 16.882 14.5834C17.294 15.2001 17.8797 15.6807 18.5649 15.9645C19.2502 16.2484 20.0042 16.3226 20.7316 16.1779C21.459 16.0332 22.1272 15.6761 22.6517 15.1517C23.1761 14.6272 23.5333 13.959 23.6779 13.2316C23.8226 12.5042 23.7484 11.7502 23.4645 11.0649C23.1807 10.3797 22.7001 9.79404 22.0834 9.38199C21.4667 8.96993 20.7417 8.75 20 8.75C19.0054 8.75 18.0516 9.14509 17.3483 9.84835C16.6451 10.5516 16.25 11.5054 16.25 12.5Z" stroke="#888888" stroke-width="2" stroke-linecap="round" stroke-linejoin="round"/>
<path d="M21.25 21.25V25C21.25 25.3315 21.1183 25.6495 20.8839 25.8839C20.6495 26.1183 20.3315 26.25 20 26.25H5C4.66848 26.25 4.35054 26.1183 4.11612 25.8839C3.8817 25.6495 3.75 25.3315 3.75 25V5C3.75 4.66848 3.8817 4.35054 4.11612 4.11612C4.35054 3.8817 4.66848 3.75 5 3.75H20" stroke="#888888" stroke-width="2" stroke-linecap="round" stroke-linejoin="round"/>
</svg>
