<svg width="30" height="30" viewBox="0 0 30 30" fill="none" xmlns="http://www.w3.org/2000/svg">
<path d="M11.25 15L13.75 17.5L19.375 11.875M11.5024 25.7511C11.9121 25.6969 12.3259 25.808 12.6522 26.0594L14.1564 27.2135C14.6535 27.5955 15.3451 27.5955 15.8409 27.2135L17.4019 26.015C17.6935 25.7914 18.0615 25.6927 18.4254 25.7414L20.378 25.9982C20.9987 26.0802 21.5974 25.7344 21.8376 25.1553L22.589 23.3386C22.7292 22.9984 22.9986 22.729 23.3389 22.5886L25.1554 21.8373C25.7345 21.5984 26.0804 20.9985 25.9984 20.3776L25.7512 18.4958C25.697 18.086 25.8081 17.6721 26.0595 17.3458L27.2136 15.8416C27.5955 15.3444 27.5955 14.6528 27.2136 14.157L26.015 12.5959C25.7915 12.3042 25.6929 11.9362 25.7415 11.5723L25.9984 9.6196C26.0804 8.99878 25.7345 8.40019 25.1554 8.15991L23.3389 7.40855C22.9986 7.26828 22.7292 6.99884 22.589 6.65857L21.8376 4.84195C21.5987 4.2628 20.9987 3.91698 20.378 3.99892L18.4254 4.25585C18.0615 4.30585 17.6935 4.20724 17.4032 3.98503L15.8422 2.78645C15.3451 2.40452 14.6535 2.40452 14.1577 2.78645L12.5967 3.98503C12.3051 4.20724 11.9371 4.30585 11.5732 4.25864L9.62058 4.0017C8.9998 3.91975 8.40125 4.26558 8.16098 4.84473L7.41105 6.66134C7.2694 7.00023 6.99997 7.26967 6.66111 7.41133L4.8446 8.1613C4.26547 8.40158 3.91967 9.00017 4.00161 9.62099L4.25853 11.5737C4.30575 11.9376 4.20715 12.3056 3.98495 12.5959L2.78643 14.157C2.40452 14.6541 2.40452 15.3459 2.78643 15.8416L3.98495 17.4028C4.20853 17.6944 4.30713 18.0624 4.25853 18.4263L4.00161 20.379C3.91967 20.9999 4.26547 21.5984 4.8446 21.8388L6.66111 22.5901C7.00136 22.7304 7.27078 22.9998 7.41105 23.34L8.16237 25.1566C8.40125 25.7359 9.0012 26.0816 9.62197 25.9998L11.5024 25.7511Z" stroke="#888888" stroke-width="2" stroke-linecap="round" stroke-linejoin="round"/>
</svg>
