<svg width="30" height="24" viewBox="0 0 30 24" fill="none" xmlns="http://www.w3.org/2000/svg">
<path d="M19.5 1.49719C19.5 1.01953 19.1297 0 18.0047 0C17.3494 0 16.7452 0.42525 16.5567 1.08656L10.5567 22.0866C10.5173 22.2241 10.4985 22.3627 10.4985 22.4991C10.4578 22.9828 10.875 24 12 24C12.6525 24 13.253 23.5708 13.4414 22.9116L19.4414 1.91156C19.4813 1.77234 19.5 1.63359 19.5 1.49719ZM8.25 6.70781C8.25 5.85094 7.54922 5.20781 6.75 5.20781C6.36619 5.20781 5.98219 5.3543 5.68969 5.64731L0.439688 10.8973C0.146484 11.2312 0 11.6156 0 11.9578C0 12.3 0.146484 12.7688 0.439453 13.0594L5.68945 18.3094C5.98125 18.6047 6.36563 18.7078 6.75 18.7078C7.54922 18.7078 8.25 18.0642 8.25 17.2078C8.25 16.824 8.10352 16.44 7.81055 16.147L3.62109 11.9578L7.81078 7.76813C8.10469 7.51406 8.25 7.13438 8.25 6.70781ZM30 11.9578C30 11.574 29.8535 11.19 29.5605 10.897L24.3105 5.64703C24.0188 5.39531 23.6344 5.20781 23.25 5.20781C22.4508 5.20781 21.75 5.85141 21.75 6.70781C21.75 7.09163 21.8965 7.47562 22.1895 7.76859L26.3791 11.9583L22.1895 16.148C21.8953 16.4812 21.75 16.8656 21.75 17.2078C21.75 18.0647 22.4508 18.7078 23.25 18.7078C23.6338 18.7078 24.0178 18.5613 24.3103 18.2683L29.5603 13.0183C29.8547 12.7687 30 12.3844 30 11.9578Z" fill="url(#paint0_linear_452_20)"/>
<defs>
<linearGradient id="paint0_linear_452_20" x1="15" y1="0" x2="15" y2="24" gradientUnits="userSpaceOnUse">
<stop stop-color="#0047FF"/>
<stop offset="1" stop-color="#00C7FF"/>
</linearGradient>
</defs>
</svg>
