<svg width="30" height="30" viewBox="0 0 30 30" fill="none" xmlns="http://www.w3.org/2000/svg">
<path opacity="0.4" d="M13.7 2.5751L6.825 5.1501C5.5125 5.6501 4.4375 7.2001 4.4375 8.6126V18.7376C4.4375 19.7501 5.1 21.0876 5.9125 21.6876L12.7875 26.8251C14 27.7376 15.9875 27.7376 17.2 26.8251L24.075 21.6876C24.8875 21.0751 25.55 19.7501 25.55 18.7376V8.6126C25.55 7.2126 24.475 5.6501 23.1625 5.1626L16.2875 2.5876C15.5875 2.3126 14.4125 2.3126 13.7 2.5751Z" fill="white"/>
<path d="M13.3257 17.7876C13.0882 17.7876 12.8507 17.7001 12.6632 17.5126L10.6508 15.5001C10.2883 15.1376 10.2883 14.5376 10.6508 14.1751C11.0133 13.8126 11.6133 13.8126 11.9758 14.1751L13.3257 15.5251L18.0382 10.8126C18.4007 10.4501 19.0007 10.4501 19.3632 10.8126C19.7257 11.1751 19.7257 11.7751 19.3632 12.1376L13.9882 17.5126C13.8007 17.7001 13.5632 17.7876 13.3257 17.7876Z" fill="white"/>
</svg>
