<svg width="441" height="161" viewBox="0 0 441 161" fill="none" xmlns="http://www.w3.org/2000/svg">
<path d="M2.44921 2.11604L269.506 156.445C271.007 157.279 272.681 157.75 274.395 157.821C276.11 157.892 277.817 157.561 279.381 156.855L438.656 64.7495C439.194 64.4707 439.649 64.0543 439.975 63.5424C440.174 63.8732 440.297 64.2436 440.337 64.6273C440.377 65.011 440.333 65.3988 440.207 65.7635C440.081 66.1282 439.877 66.461 439.609 66.7383C439.341 67.0156 439.016 67.2307 438.656 67.3687L279.381 159.474C277.817 160.181 276.11 160.511 274.395 160.44C272.681 160.369 271.007 159.898 269.506 159.064L2.44921 4.66692C0.173863 3.39147 -0.485986 1.59218 0.424152 0.111755C0.917682 0.941534 1.61472 1.63143 2.44921 2.11604Z" fill="#6EE8FC"/>
</svg>
