<svg width="313" height="370" viewBox="0 0 313 370" fill="none" xmlns="http://www.w3.org/2000/svg">
<path d="M0.506298 204.347L34.2724 3.9203L31.542 2.78151L35.6376 0.503925C36.1335 0.242785 36.6925 0.125737 37.2514 0.165986C37.8103 0.206234 38.3469 0.402189 38.8004 0.731697L308.588 156.655C309.723 157.382 310.646 158.397 311.262 159.598C311.877 160.798 312.164 162.14 312.092 163.488L277.962 365.463C277.923 365.904 277.77 366.326 277.519 366.689C277.267 367.053 276.926 367.344 276.528 367.536L272.547 369.814L271.864 366.078H272.091L3.91932 211.203C2.79886 210.461 1.89345 209.437 1.29428 208.233C0.695108 207.03 0.423324 205.689 0.506298 204.347Z" fill="url(#paint0_linear_134_52)"/>
<defs>
<linearGradient id="paint0_linear_134_52" x1="312.138" y1="184.942" x2="0.460786" y2="184.942" gradientUnits="userSpaceOnUse">
<stop stop-color="#7BDAFF"/>
<stop offset="1" stop-color="#59BDEF"/>
</linearGradient>
</defs>
</svg>
