<svg width="569" height="419" viewBox="0 0 569 419" fill="none" xmlns="http://www.w3.org/2000/svg">
<path d="M554.928 188.251L555.108 188.492L397.371 97.2621C389.358 92.6325 375.336 93.2538 365.98 98.5648L12.5643 302.729L0.785156 298.22L4.09053 314.754C4.43037 316.181 5.08295 317.515 6.00105 318.659C6.91915 319.802 8.07985 320.728 9.3992 321.368L172.204 415.564C180.218 420.213 194.24 419.572 203.596 414.261L557.913 209.555C562.28 207.03 564.804 203.904 565.425 200.797L568.811 184.764L554.928 188.251Z" fill="url(#paint0_radial_50_1040)"/>
<path d="M172.805 400.953L6.07376 304.493C-1.9393 299.823 -1.0178 291.646 8.35748 286.235L365.159 80.1864C374.514 74.7952 388.677 74.1739 396.791 78.8837L563.502 175.284C571.615 179.974 570.594 188.131 561.238 193.542L204.517 399.65C195.062 405.061 180.919 405.643 172.805 400.953Z" fill="url(#paint1_radial_50_1040)"/>
<path d="M173.026 390.191L19.4154 301.407C11.5025 296.817 12.5041 288.84 21.639 283.549L365.279 85.0169C374.414 79.7459 388.256 79.1647 396.169 83.7342L551.082 173.26C559.095 177.83 558.013 185.806 548.878 191.097L203.916 388.908C194.781 394.199 180.939 394.68 173.026 390.191Z" fill="url(#paint2_radial_50_1040)"/>
<path opacity="0.4" d="M173.026 390.191L19.4154 301.407C11.5025 296.817 12.5041 288.84 21.639 283.549L365.279 85.0169C374.414 79.7459 388.256 79.1647 396.169 83.7342L551.082 173.26C559.095 177.83 558.013 185.806 548.878 191.097L203.916 388.908C194.781 394.199 180.939 394.68 173.026 390.191Z" fill="#06033E"/>
<path opacity="0.4" d="M458.431 119.729L452.421 123.176C447.793 125.861 447.293 129.91 451.299 132.214L454.124 133.858C458.13 136.163 465.142 135.862 469.769 133.197L475.779 129.749L458.431 119.729Z" fill="#06033E"/>
<g opacity="0.2">
<path d="M191.055 276.435L264.254 318.823C273.089 323.893 288.514 323.192 298.67 317.279C308.847 311.267 309.909 302.449 301.074 297.378L227.875 254.99C219.02 249.919 203.615 250.621 193.439 256.533C183.282 262.546 182.2 271.444 191.055 276.435Z" fill="url(#paint3_linear_50_1040)"/>
</g>
<path d="M218.42 273.769L208.163 267.756C206.64 266.875 206.821 265.331 208.583 264.329C209.495 263.818 210.514 263.528 211.557 263.483C212.601 263.438 213.641 263.638 214.593 264.069L224.87 270.081C226.393 270.963 226.192 272.506 224.429 273.528C223.517 274.038 222.497 274.325 221.453 274.367C220.409 274.409 219.37 274.204 218.42 273.769V273.769Z" fill="#FE4C1C"/>
<path d="M256.603 295.815L229.198 279.982C227.676 279.1 227.856 277.577 229.619 276.554C230.529 276.04 231.549 275.75 232.595 275.708C233.64 275.667 234.679 275.874 235.628 276.314L263.053 292.147C264.576 293.029 264.375 294.552 262.612 295.574C261.702 296.088 260.682 296.378 259.637 296.42C258.592 296.462 257.552 296.254 256.603 295.815Z" fill="#FE4C1C"/>
<path d="M277.396 307.84L267.38 302.088C265.857 301.206 266.058 299.663 267.8 298.64C268.711 298.126 269.731 297.836 270.776 297.794C271.821 297.753 272.861 297.96 273.81 298.4L283.826 304.152C285.349 305.034 285.149 306.577 283.386 307.579C282.479 308.093 281.463 308.385 280.422 308.43C279.381 308.475 278.344 308.273 277.396 307.84V307.84Z" fill="#FE4C1C"/>
<g opacity="0.2">
<path d="M214.253 221.36L323.13 284.892C331.985 289.942 347.39 289.261 357.567 283.329C367.723 277.416 368.805 268.498 359.971 263.447L251.073 199.915C242.239 194.845 226.814 195.546 216.657 201.458C206.52 207.391 205.419 216.309 214.253 221.36Z" fill="url(#paint4_linear_50_1040)"/>
</g>
<path d="M261.189 229.998C260.277 229.533 259.268 229.291 258.244 229.291C257.221 229.291 256.212 229.533 255.3 229.998L252.395 231.681C252.041 231.804 251.735 232.035 251.518 232.34C251.301 232.645 251.185 233.01 251.185 233.385C251.185 233.759 251.301 234.125 251.518 234.43C251.735 234.735 252.041 234.965 252.395 235.088C253.307 235.553 254.316 235.795 255.34 235.795C256.363 235.795 257.372 235.553 258.285 235.088L261.189 233.405C261.543 233.282 261.849 233.052 262.066 232.746C262.283 232.441 262.4 232.076 262.4 231.701C262.4 231.327 262.283 230.962 262.066 230.656C261.849 230.351 261.543 230.121 261.189 229.998V229.998Z" fill="#FE4C1C"/>
<path d="M288.654 228.695C287.746 228.231 286.74 227.989 285.719 227.989C284.699 227.989 283.693 228.231 282.785 228.695L264.996 238.977C264.64 239.094 264.33 239.322 264.11 239.626C263.891 239.93 263.772 240.295 263.772 240.67C263.772 241.045 263.891 241.411 264.11 241.715C264.33 242.019 264.64 242.246 264.996 242.364C265.904 242.828 266.91 243.07 267.93 243.07C268.951 243.07 269.957 242.828 270.865 242.364L288.654 232.082C290.317 231.14 290.317 229.637 288.654 228.695Z" fill="#FE4C1C"/>
<path d="M343.524 269.821C342.612 269.356 341.603 269.114 340.579 269.114C339.555 269.114 338.546 269.356 337.634 269.821L328.039 275.372C327.683 275.49 327.373 275.717 327.153 276.021C326.934 276.325 326.815 276.691 326.815 277.066C326.815 277.441 326.934 277.806 327.153 278.11C327.373 278.414 327.683 278.641 328.039 278.759C328.947 279.224 329.953 279.466 330.973 279.466C331.994 279.466 333 279.224 333.908 278.759L343.524 273.208C343.88 273.09 344.19 272.863 344.409 272.559C344.629 272.255 344.747 271.889 344.747 271.514C344.747 271.139 344.629 270.773 344.409 270.469C344.19 270.165 343.88 269.938 343.524 269.821V269.821Z" fill="#FE4C1C"/>
<path d="M329.722 263.227C328.81 262.762 327.801 262.52 326.777 262.52C325.753 262.52 324.744 262.762 323.832 263.227L315.418 268.097C315.062 268.215 314.753 268.442 314.533 268.746C314.313 269.05 314.195 269.415 314.195 269.79C314.195 270.166 314.313 270.531 314.533 270.835C314.753 271.139 315.062 271.366 315.418 271.484C316.331 271.949 317.34 272.191 318.363 272.191C319.387 272.191 320.396 271.949 321.308 271.484L329.722 266.634C330.075 266.511 330.382 266.281 330.599 265.975C330.816 265.67 330.932 265.305 330.932 264.93C330.932 264.556 330.816 264.191 330.599 263.885C330.382 263.58 330.075 263.35 329.722 263.227Z" fill="#FE4C1C"/>
<path d="M326.496 250.541C325.584 250.076 324.575 249.834 323.552 249.834C322.528 249.834 321.519 250.076 320.607 250.541L302.818 260.802C302.464 260.925 302.158 261.155 301.941 261.461C301.724 261.766 301.607 262.131 301.607 262.506C301.607 262.88 301.724 263.245 301.941 263.551C302.158 263.856 302.464 264.086 302.818 264.209C303.73 264.674 304.739 264.916 305.763 264.916C306.786 264.916 307.795 264.674 308.707 264.209L326.496 253.928C326.852 253.81 327.162 253.583 327.382 253.279C327.601 252.975 327.72 252.609 327.72 252.234C327.72 251.859 327.601 251.494 327.382 251.19C327.162 250.886 326.852 250.659 326.496 250.541V250.541Z" fill="#FE4C1C"/>
<path d="M310.129 245.43C309.217 244.965 308.207 244.723 307.184 244.723C306.16 244.723 305.151 244.965 304.239 245.43L290.216 253.447C289.863 253.57 289.556 253.8 289.339 254.105C289.122 254.41 289.006 254.776 289.006 255.15C289.006 255.525 289.122 255.89 289.339 256.195C289.556 256.5 289.863 256.731 290.216 256.854C291.131 257.309 292.139 257.546 293.161 257.546C294.183 257.546 295.191 257.309 296.106 256.854L310.129 248.737C310.458 248.604 310.74 248.375 310.938 248.08C311.137 247.786 311.243 247.439 311.243 247.083C311.243 246.728 311.137 246.381 310.938 246.086C310.74 245.792 310.458 245.563 310.129 245.43V245.43Z" fill="#FE4C1C"/>
<path d="M291.899 241.382C290.988 240.926 289.983 240.689 288.964 240.689C287.946 240.689 286.941 240.926 286.029 241.382L277.616 246.252C277.26 246.369 276.95 246.597 276.73 246.901C276.511 247.205 276.393 247.57 276.393 247.945C276.393 248.32 276.511 248.686 276.73 248.99C276.95 249.294 277.26 249.521 277.616 249.639C278.524 250.103 279.53 250.345 280.55 250.345C281.571 250.345 282.577 250.103 283.485 249.639L291.899 244.789C292.253 244.666 292.559 244.435 292.776 244.13C292.993 243.825 293.109 243.46 293.109 243.085C293.109 242.711 292.993 242.345 292.776 242.04C292.559 241.735 292.253 241.505 291.899 241.382V241.382Z" fill="#FE4C1C"/>
<path d="M264.215 184.022L313.796 212.602C322.65 217.672 338.055 216.991 348.232 211.058C358.388 205.146 359.47 196.228 350.636 191.157L301.035 162.578C292.2 157.507 276.775 158.189 266.619 164.121C256.442 170.033 255.38 178.952 264.215 184.022Z" fill="url(#paint5_linear_50_1040)"/>
<path d="M561.239 189.213L204.517 395.321C195.162 400.713 181.019 401.334 172.906 396.624L6.174 300.224C3.81779 299.013 2.01218 296.949 1.12576 294.452C0.0440015 298.18 1.62659 301.927 6.174 304.473L172.906 400.873C181.019 405.563 195.162 404.881 204.517 399.57L561.239 193.542C567.409 189.975 569.873 185.225 568.571 181.056C567.271 184.62 564.644 187.543 561.239 189.213V189.213Z" fill="white"/>
<path d="M84.0409 237.994L176.191 291.005C185.045 296.075 200.451 295.374 210.607 289.461C220.784 283.449 221.865 274.631 213.011 269.56L120.861 216.53C112.006 211.479 96.6014 212.161 86.4248 218.093C76.3083 224.005 75.1865 232.924 84.0409 237.994Z" fill="url(#paint6_linear_50_1040)"/>
<g opacity="0.6">
<path d="M84.0409 288.46L176.191 341.49C185.045 346.54 200.451 345.859 210.607 339.927C220.784 334.014 221.865 325.096 213.011 320.045L120.861 267.015C112.006 261.944 96.6014 262.646 86.4248 268.578C76.3083 274.43 75.1865 283.429 84.0409 288.46Z" fill="#020230"/>
</g>
<path d="M147.384 256.393L119.979 240.56C118.457 239.678 118.637 238.135 120.4 237.132C121.311 236.621 122.33 236.331 123.374 236.286C124.418 236.241 125.458 236.441 126.41 236.872L153.814 252.725C155.337 253.607 155.157 255.13 153.394 256.152C152.483 256.666 151.463 256.956 150.418 256.998C149.373 257.04 148.333 256.832 147.384 256.393V256.393Z" fill="#BA2F2F"/>
<path d="M168.177 268.418L158.161 262.646C156.638 261.784 156.819 260.241 158.582 259.219C159.492 258.704 160.512 258.414 161.557 258.372C162.602 258.331 163.642 258.538 164.591 258.978L174.608 264.73C176.13 265.612 175.95 267.155 174.187 268.157C173.276 268.668 172.257 268.958 171.213 269.004C170.169 269.049 169.129 268.848 168.177 268.418Z" fill="#BA2F2F"/>
<path style="mix-blend-mode:lighten" opacity="0.4" d="M219.121 0H78.0508V229.096C78.0508 232.423 79.8938 235.61 84.0606 237.974L176.211 290.985C185.045 296.055 200.47 295.354 210.627 289.441C215.615 286.535 218.4 282.928 218.92 279.421H219.061L219.121 0Z" fill="url(#paint7_linear_50_1040)"/>
<path d="M285.77 178.37L277.596 173.641C276.074 172.759 276.254 171.216 278.017 170.213C278.926 169.696 279.946 169.403 280.991 169.357C282.036 169.312 283.076 169.516 284.027 169.953L292.2 174.683C293.723 175.565 293.542 177.108 291.78 178.13C290.867 178.64 289.847 178.927 288.803 178.969C287.759 179.01 286.72 178.806 285.77 178.37V178.37Z" fill="#BA2F2F"/>
<path d="M317.601 196.749L296.026 184.243C294.504 183.361 294.704 181.818 296.467 180.796C297.377 180.278 298.397 179.987 299.443 179.945C300.488 179.903 301.529 180.112 302.477 180.555L324.052 193.021C325.574 193.903 325.394 195.426 323.631 196.448C322.723 196.975 321.702 197.278 320.653 197.33C319.604 197.382 318.558 197.183 317.601 196.749V196.749Z" fill="#BA2F2F"/>
<path d="M248.83 220.318C245.018 222.254 240.804 223.264 236.529 223.264C232.255 223.264 228.041 222.254 224.229 220.318C217.418 216.31 217.418 210.037 224.229 206.108C228.044 204.172 232.262 203.163 236.539 203.163C240.817 203.163 245.035 204.172 248.85 206.108C255.641 209.976 255.641 216.31 248.83 220.318Z" fill="#FE4C1C"/>
<path d="M229.057 212.682L235.708 208.834C236.279 208.512 236.941 208.388 237.59 208.482C238.239 208.577 238.838 208.884 239.294 209.355L242.179 214.866C242.679 215.828 241.137 216.71 239.494 216.43L229.959 214.746C228.396 214.485 227.895 213.343 229.057 212.682Z" fill="#BA2F2F"/>
<path d="M519.69 175.184L518.328 174.382L511.657 170.534C510.789 170.09 509.828 169.857 508.853 169.857C507.877 169.857 506.916 170.09 506.048 170.534C505.704 170.644 505.403 170.86 505.19 171.152C504.976 171.444 504.861 171.796 504.861 172.158C504.861 172.519 504.976 172.872 505.19 173.163C505.403 173.455 505.704 173.672 506.048 173.781L512.699 177.629L514.081 178.431L520.732 182.259C521.6 182.704 522.561 182.936 523.536 182.936C524.512 182.936 525.473 182.704 526.341 182.259C526.685 182.149 526.986 181.933 527.199 181.641C527.413 181.349 527.528 180.997 527.528 180.635C527.528 180.274 527.413 179.922 527.199 179.63C526.986 179.338 526.685 179.122 526.341 179.012L519.69 175.184Z" fill="#FE4C1C"/>
<path d="M394.668 102.693L393.285 101.892L386.634 98.0638C385.76 97.6294 384.796 97.4033 383.82 97.4033C382.843 97.4033 381.88 97.6294 381.005 98.0638C380.671 98.1832 380.381 98.4034 380.176 98.694C379.971 98.9846 379.861 99.3315 379.861 99.6871C379.861 100.043 379.971 100.39 380.176 100.68C380.381 100.971 380.671 101.191 381.005 101.31L387.656 105.158L389.038 105.96L395.689 109.808C396.564 110.243 397.527 110.469 398.504 110.469C399.48 110.469 400.444 110.243 401.318 109.808C401.653 109.689 401.943 109.469 402.148 109.178C402.352 108.887 402.462 108.54 402.462 108.185C402.462 107.829 402.352 107.482 402.148 107.192C401.943 106.901 401.653 106.681 401.318 106.561L394.668 102.693Z" fill="#FE4C1C"/>
<path d="M420.71 117.564L419.327 116.763L412.676 112.915C411.805 112.469 410.84 112.237 409.862 112.237C408.883 112.237 407.919 112.469 407.047 112.915C406.713 113.034 406.423 113.254 406.218 113.545C406.013 113.835 405.903 114.182 405.903 114.538C405.903 114.893 406.013 115.24 406.218 115.531C406.423 115.822 406.713 116.042 407.047 116.161L413.698 120.009L415.08 120.811L417.204 122.033C418.079 122.468 419.042 122.694 420.018 122.694C420.995 122.694 421.958 122.468 422.833 122.033C423.168 121.914 423.457 121.694 423.662 121.403C423.867 121.113 423.977 120.766 423.977 120.41C423.977 120.054 423.867 119.708 423.662 119.417C423.457 119.126 423.168 118.906 422.833 118.787L420.71 117.564Z" fill="#FE4C1C"/>
<path d="M376.236 158.389L389.438 150.773L386.092 149.671L388.096 148.448C389.735 149.006 391.452 149.304 393.184 149.33L395.307 150.573L378.961 160.012L376.236 158.389Z" fill="white"/>
<path d="M382.808 162.197L384.811 161.055L395.048 159.752L396.27 159.612L397.612 159.431L398.674 159.231C399.09 159.16 399.498 159.053 399.895 158.91C400.232 158.77 400.56 158.609 400.877 158.429C401.36 158.221 401.756 157.853 401.999 157.387C402.099 157.066 401.999 156.766 401.418 156.505C400.73 156.258 399.991 156.189 399.27 156.304C398.548 156.42 397.867 156.717 397.291 157.167L396.61 157.547L393.846 155.964L394.547 155.563C395.254 155.141 396.007 154.798 396.79 154.541C397.527 154.282 398.295 154.12 399.074 154.06C399.86 153.99 400.652 154.051 401.418 154.24C402.235 154.426 403.019 154.737 403.742 155.162C405.124 155.964 405.745 156.766 405.745 157.607C405.745 158.449 405.004 159.271 403.642 160.053C403.176 160.33 402.687 160.565 402.179 160.754C401.651 160.948 401.108 161.103 400.557 161.215C399.976 161.335 399.475 161.415 399.034 161.476L397.311 161.676H396.83L388.357 162.698L393.265 165.524L391.001 166.827L382.808 162.197Z" fill="white"/>
<path d="M394.967 167.328L397.611 165.785L400.275 167.328L397.631 168.851L394.967 167.328ZM401.638 163.46L404.302 161.937L406.966 163.46L404.302 165.003L401.638 163.46Z" fill="white"/>
<path d="M401.658 173.34C400.196 172.499 399.514 171.637 399.655 170.775C399.795 169.913 400.556 169.031 402.019 168.19L402.6 167.849L405.404 169.472L404.943 169.733C404.357 170.031 403.844 170.455 403.441 170.975C403.261 171.336 403.441 171.657 404.022 171.998C404.268 172.132 404.53 172.233 404.803 172.298C405.055 172.337 405.312 172.337 405.564 172.298C405.831 172.272 406.094 172.211 406.346 172.118C406.627 172.024 406.901 171.91 407.167 171.777L408.068 171.296C408.72 170.998 409.265 170.509 409.631 169.893C409.791 169.472 409.631 169.051 408.89 168.611L408.669 168.49C408.611 168.437 408.543 168.396 408.469 168.37L410.813 167.007L411.214 167.228C411.82 167.587 412.512 167.774 413.217 167.769C413.998 167.679 414.75 167.419 415.42 167.007C415.952 166.762 416.398 166.365 416.703 165.865C416.863 165.524 416.702 165.203 416.081 164.883C415.856 164.749 415.614 164.648 415.36 164.582H414.619C414.36 164.609 414.105 164.662 413.858 164.743L413.097 165.023L412.295 165.444L411.734 165.765L408.93 164.141L409.691 163.7C411.011 162.925 412.508 162.504 414.038 162.478C415.554 162.457 417.045 162.86 418.345 163.64C419.727 164.422 420.348 165.264 420.348 166.125C420.348 166.987 419.647 167.809 418.245 168.611C417.356 169.138 416.367 169.473 415.34 169.593C414.394 169.736 413.428 169.66 412.516 169.372C412.733 169.596 412.877 169.881 412.927 170.19C412.977 170.498 412.932 170.814 412.796 171.096C412.318 171.889 411.623 172.529 410.793 172.94C409.364 173.789 407.761 174.303 406.105 174.443C404.546 174.531 402.996 174.146 401.658 173.34V173.34Z" fill="white"/>
<path d="M416.102 180.235C414.541 180.324 412.988 179.955 411.635 179.173C410.273 178.371 409.631 177.509 409.792 176.587C409.952 175.665 410.713 174.783 412.156 173.962L419.347 169.793C420.745 168.969 422.316 168.482 423.935 168.37C425.506 168.289 427.067 168.672 428.422 169.472C429.824 170.294 430.425 171.156 430.305 172.058C430.185 172.96 429.344 173.861 427.861 174.723L420.669 178.872C419.277 179.682 417.711 180.149 416.102 180.235V180.235ZM414.099 177.77C415.06 178.331 416.322 178.13 417.925 177.208L425.037 173.1L425.597 172.759C425.767 172.652 425.928 172.531 426.078 172.398C426.229 172.298 426.359 172.169 426.459 172.018C426.529 171.898 426.583 171.77 426.619 171.637C426.647 171.574 426.661 171.505 426.661 171.436C426.661 171.367 426.647 171.299 426.619 171.236C426.499 171.086 426.349 170.964 426.178 170.875C425.934 170.726 425.661 170.63 425.377 170.595C425.112 170.545 424.841 170.545 424.576 170.595C424.302 170.621 424.033 170.681 423.775 170.775L423.013 171.096L422.292 171.477L415.201 175.485C413.418 176.427 413.097 177.168 414.039 177.71L414.099 177.77Z" fill="white"/>
<path opacity="0.8" d="M464.361 130.13C463.308 130.664 462.145 130.942 460.965 130.942C459.785 130.942 458.622 130.664 457.57 130.13C457.038 130.13 456.529 129.919 456.153 129.543C455.777 129.168 455.566 128.658 455.566 128.126C455.566 127.595 455.777 127.085 456.153 126.709C456.529 126.333 457.038 126.122 457.57 126.122C458.622 125.589 459.785 125.311 460.965 125.311C462.145 125.311 463.308 125.589 464.361 126.122C464.892 126.122 465.402 126.333 465.777 126.709C466.153 127.085 466.364 127.595 466.364 128.126C466.364 128.658 466.153 129.168 465.777 129.543C465.402 129.919 464.892 130.13 464.361 130.13Z" fill="#06033E"/>
<defs>
<radialGradient id="paint0_radial_50_1040" cx="0" cy="0" r="1" gradientUnits="userSpaceOnUse" gradientTransform="translate(6.6347 218.795) scale(557.468 557.719)">
<stop stop-color="#E39A65"/>
<stop offset="0.28" stop-color="#A92FFB"/>
<stop offset="0.33" stop-color="#891CFB"/>
<stop offset="0.4" stop-color="#6507FA"/>
<stop offset="0.54" stop-color="#0D0C6F"/>
</radialGradient>
<radialGradient id="paint1_radial_50_1040" cx="0" cy="0" r="1" gradientUnits="userSpaceOnUse" gradientTransform="translate(100.988 56.7377) scale(735.879 736.21)">
<stop stop-color="#E39A65"/>
<stop offset="0.41" stop-color="#A92FFB"/>
<stop offset="0.55" stop-color="#891CFB"/>
<stop offset="0.73" stop-color="#6507FA"/>
<stop offset="0.74" stop-color="#6308F8"/>
<stop offset="1" stop-color="#3919BB"/>
</radialGradient>
<radialGradient id="paint2_radial_50_1040" cx="0" cy="0" r="1" gradientUnits="userSpaceOnUse" gradientTransform="translate(129.595 76.0182) scale(462.273 462.481)">
<stop stop-color="#6507FA"/>
<stop offset="1" stop-color="#3919BB"/>
</radialGradient>
<linearGradient id="paint3_linear_50_1040" x1="355.563" y1="367.992" x2="302.821" y2="277.317" gradientUnits="userSpaceOnUse">
<stop stop-color="#E39A65"/>
<stop offset="1" stop-color="#FE4C1C"/>
</linearGradient>
<linearGradient id="paint4_linear_50_1040" x1="405.472" y1="339.238" x2="334.609" y2="217.408" gradientUnits="userSpaceOnUse">
<stop stop-color="#E39A65"/>
<stop offset="1" stop-color="#FE4C1C"/>
</linearGradient>
<linearGradient id="paint5_linear_50_1040" x1="410.706" y1="258.914" x2="369.872" y2="188.711" gradientUnits="userSpaceOnUse">
<stop stop-color="#E39A65"/>
<stop offset="1" stop-color="#FE4C1C"/>
</linearGradient>
<linearGradient id="paint6_linear_50_1040" x1="263.284" y1="342.956" x2="201.161" y2="236.152" gradientUnits="userSpaceOnUse">
<stop stop-color="#E39A65"/>
<stop offset="1" stop-color="#FE4C1C"/>
</linearGradient>
<linearGradient id="paint7_linear_50_1040" x1="148.586" y1="294.392" x2="148.586" y2="0" gradientUnits="userSpaceOnUse">
<stop stop-color="#966643" stop-opacity="0.3"/>
<stop offset="0.04" stop-color="#D6915F" stop-opacity="0.3"/>
<stop offset="0.24" stop-color="#966643" stop-opacity="0.2"/>
<stop offset="0.43" stop-color="#60412B" stop-opacity="0.3"/>
<stop offset="0.61" stop-color="#050962" stop-opacity="0.1"/>
<stop offset="0.77" stop-color="#050966" stop-opacity="0.1"/>
<stop offset="0.9" stop-color="#050A68" stop-opacity="0.1"/>
<stop offset="1" stop-color="#050A6D" stop-opacity="0.1"/>
</linearGradient>
</defs>
</svg>
