<svg width="26" height="22" viewBox="0 0 26 22" fill="none" xmlns="http://www.w3.org/2000/svg">
<path d="M5.8125 0.375C4.60438 0.375 3.625 1.35438 3.625 2.5625V5.6875C3.625 6.89562 4.60438 7.875 5.8125 7.875H8.9375C10.1456 7.875 11.125 6.89562 11.125 5.6875V2.5625C11.125 1.35438 10.1456 0.375 8.9375 0.375H5.8125ZM14.875 2.5625C14.875 1.35438 15.8544 0.375 17.0625 0.375H20.1875C21.3956 0.375 22.375 1.35438 22.375 2.5625V5.6875C22.375 6.89562 21.3956 7.875 20.1875 7.875H17.0625C15.8544 7.875 14.875 6.89562 14.875 5.6875V2.5625ZM17.0625 2.25C16.8899 2.25 16.75 2.38991 16.75 2.5625V5.6875C16.75 5.86009 16.8899 6 17.0625 6H20.1875C20.3601 6 20.5 5.86009 20.5 5.6875V2.5625C20.5 2.38991 20.3601 2.25 20.1875 2.25H17.0625ZM6.75 17.875C7.78554 17.875 8.625 17.0355 8.625 16C8.625 14.9645 7.78554 14.125 6.75 14.125C5.71446 14.125 4.875 14.9645 4.875 16C4.875 17.0355 5.71446 17.875 6.75 17.875ZM14.875 16C14.875 17.0355 14.0355 17.875 13 17.875C11.9645 17.875 11.125 17.0355 11.125 16C11.125 14.9645 11.9645 14.125 13 14.125C14.0355 14.125 14.875 14.9645 14.875 16ZM19.25 17.875C20.2855 17.875 21.125 17.0355 21.125 16C21.125 14.9645 20.2855 14.125 19.25 14.125C18.2145 14.125 17.375 14.9645 17.375 16C17.375 17.0355 18.2145 17.875 19.25 17.875ZM0.5 16C0.5 12.8934 3.0184 10.375 6.125 10.375H19.875C22.9816 10.375 25.5 12.8934 25.5 16C25.5 19.1066 22.9816 21.625 19.875 21.625H6.125C3.0184 21.625 0.5 19.1066 0.5 16ZM6.125 12.25C4.05394 12.25 2.375 13.9289 2.375 16C2.375 18.0711 4.05394 19.75 6.125 19.75H19.875C21.9461 19.75 23.625 18.0711 23.625 16C23.625 13.9289 21.9461 12.25 19.875 12.25H6.125Z" fill="url(#paint0_linear_287_115)"/>
<defs>
<linearGradient id="paint0_linear_287_115" x1="13" y1="0.375" x2="13" y2="21.625" gradientUnits="userSpaceOnUse">
<stop stop-color="#0047FF"/>
<stop offset="1" stop-color="#00C7FF"/>
</linearGradient>
</defs>
</svg>
