<svg width="22" height="30" viewBox="0 0 22 30" fill="none" xmlns="http://www.w3.org/2000/svg">
<path d="M18.3395 14.8789V14.532C19.0505 14.4156 19.7049 14.0772 20.2167 13.553C20.8401 12.9146 21.1835 12.0714 21.1835 11.1789C21.1835 10.2864 20.8402 9.44322 20.2167 8.80484C19.7049 8.28072 19.0506 7.94234 18.3395 7.82586V7.47898C18.3395 6.56076 17.5924 5.81368 16.6742 5.81368H11.4682V4.66981C12.5415 4.44897 13.3512 3.49682 13.3512 2.35905C13.3513 1.05832 12.293 0 10.9922 0C9.69146 0 8.63326 1.05832 8.63326 2.35905C8.63326 3.49682 9.44291 4.44897 10.5162 4.66981V5.81374H5.31022C4.39194 5.81374 3.64493 6.56081 3.64493 7.47904V7.82843C2.94051 7.9475 2.29282 8.285 1.78522 8.80484C1.16178 9.44328 0.818359 10.2864 0.818359 11.1789C0.818359 12.0714 1.16172 12.9146 1.78522 13.553C2.29287 14.0728 2.94057 14.4103 3.64493 14.5294V14.8788C3.64493 15.797 4.392 16.5441 5.31022 16.5441H10.5162V17.7394H7.85595C6.42427 17.7394 5.25954 18.9041 5.25954 20.3358V23.3937H3.88962C2.97133 23.3937 2.22438 24.1407 2.22438 25.0589V29.5239C2.22438 29.7868 2.43742 29.9999 2.70039 29.9999H5.73562H12.7167C12.9797 29.9999 13.1927 29.7868 13.1927 29.5239C13.1927 29.261 12.9797 29.0479 12.7167 29.0479H6.21151V23.9001V20.3358C6.21151 19.4291 6.94915 18.6915 7.85589 18.6915H14.1286C15.0353 18.6915 15.7729 19.4291 15.7729 20.3358V23.9002V29.048H14.2715C14.0085 29.048 13.7955 29.2611 13.7955 29.524C13.7955 29.7869 14.0085 30 14.2715 30H16.2489H19.284C19.547 30 19.7601 29.7869 19.7601 29.524V25.059C19.7601 24.1407 19.013 23.3937 18.0947 23.3937H16.725V20.3358C16.725 18.9041 15.5602 17.7395 14.1286 17.7395H11.4683V16.5442H16.6743V16.5442C17.5926 16.5442 18.3395 15.7971 18.3395 14.8789ZM18.3395 8.79453C19.4326 9.04326 20.2316 10.0108 20.2316 11.179C20.2316 12.3471 19.4326 13.3146 18.3395 13.5634V8.79453ZM3.64487 13.5591C2.56088 13.3039 1.77033 12.3409 1.77033 11.179C1.77033 10.0171 2.56088 9.05404 3.64487 8.79887V13.5591ZM5.25948 29.048H3.17635V25.0591C3.17635 24.6658 3.49633 24.3459 3.88956 24.3459H5.25948V29.048ZM16.725 24.3458H18.0947C18.488 24.3458 18.808 24.6658 18.808 25.059V29.048H16.725V24.3458ZM9.58529 2.35905C9.58529 1.58321 10.2165 0.952033 10.9922 0.952033C11.7681 0.952033 12.3993 1.58321 12.3993 2.35905C12.3993 3.13489 11.7681 3.76606 10.9922 3.76606C10.2164 3.76606 9.58529 3.13495 9.58529 2.35905ZM5.31016 15.5921C4.91682 15.5921 4.5969 15.2721 4.5969 14.8789V14.2387C4.61038 14.1943 4.61747 14.1478 4.61747 14.1006V8.25722C4.61747 8.21 4.61038 8.16353 4.5969 8.11918V7.47898C4.5969 7.0857 4.91688 6.76578 5.31011 6.76578H16.6743C17.0676 6.76578 17.3875 7.08576 17.3875 7.47898V8.20484C17.3856 8.22218 17.3844 8.2397 17.3844 8.25728V14.1007C17.3844 14.1183 17.3856 14.1358 17.3875 14.1531V14.879C17.3875 15.2723 17.0675 15.5922 16.6743 15.5922L5.31016 15.5921Z" fill="url(#paint0_linear_287_95)"/>
<path d="M9.67477 9.95665C9.67477 9.05665 8.94247 8.3244 8.04235 8.3244C7.14235 8.3244 6.41016 9.05665 6.41016 9.95665C6.41016 10.8567 7.14235 11.5889 8.04235 11.5889C8.94247 11.5889 9.67477 10.8567 9.67477 9.95665ZM8.04229 10.6369C7.66723 10.6369 7.36213 10.3317 7.36213 9.95665C7.36213 9.58159 7.66723 9.27643 8.04229 9.27643C8.41747 9.27643 8.72268 9.58159 8.72268 9.95665C8.72268 10.3317 8.41752 10.6369 8.04229 10.6369Z" fill="url(#paint1_linear_287_95)"/>
<path d="M13.9409 8.3244C13.0408 8.3244 12.3086 9.05665 12.3086 9.95665C12.3086 10.8567 13.0408 11.5889 13.9409 11.5889C14.841 11.5889 15.5732 10.8567 15.5732 9.95665C15.5732 9.05665 14.841 8.3244 13.9409 8.3244ZM13.9409 10.6369C13.5658 10.6369 13.2606 10.3317 13.2606 9.95665C13.2606 9.58159 13.5658 9.27643 13.9409 9.27643C14.316 9.27643 14.6211 9.58159 14.6211 9.95665C14.6211 10.3317 14.316 10.6369 13.9409 10.6369Z" fill="url(#paint2_linear_287_95)"/>
<path d="M12.6883 12.4214C12.4335 12.3572 12.1747 12.512 12.1106 12.767C11.9663 13.3412 11.4511 13.7423 10.8581 13.7423C10.2622 13.7423 9.74664 13.3389 9.60432 12.7614C9.54145 12.5062 9.2834 12.3502 9.02822 12.4132C8.77299 12.476 8.61707 12.734 8.67994 12.9893C8.92733 13.9931 9.82305 14.6943 10.8581 14.6943C11.8883 14.6943 12.7831 13.9972 13.0339 12.999C13.098 12.7441 12.9433 12.4855 12.6883 12.4214Z" fill="url(#paint3_linear_287_95)"/>
<path d="M10.9596 20.5494C9.33096 20.5494 8.00586 21.8744 8.00586 23.5031C8.00586 25.1317 9.3309 26.4568 10.9596 26.4568C12.5881 26.4568 13.9132 25.1318 13.9132 23.5031C13.9132 21.8744 12.5882 20.5494 10.9596 20.5494ZM10.9596 25.5047C9.85584 25.5047 8.95789 24.6068 8.95789 23.5032C8.95789 22.3994 9.85579 21.5015 10.9596 21.5015C12.0633 21.5015 12.9611 22.3994 12.9611 23.5032C12.9611 24.6068 12.0632 25.5047 10.9596 25.5047Z" fill="url(#paint4_linear_287_95)"/>
<defs>
<linearGradient id="paint0_linear_287_95" x1="11.0009" y1="0" x2="11.0009" y2="30" gradientUnits="userSpaceOnUse">
<stop stop-color="#0047FF"/>
<stop offset="1" stop-color="#00C7FF"/>
</linearGradient>
<linearGradient id="paint1_linear_287_95" x1="8.04246" y1="8.3244" x2="8.04246" y2="11.5889" gradientUnits="userSpaceOnUse">
<stop stop-color="#0047FF"/>
<stop offset="1" stop-color="#00C7FF"/>
</linearGradient>
<linearGradient id="paint2_linear_287_95" x1="13.9409" y1="8.3244" x2="13.9409" y2="11.5889" gradientUnits="userSpaceOnUse">
<stop stop-color="#0047FF"/>
<stop offset="1" stop-color="#00C7FF"/>
</linearGradient>
<linearGradient id="paint3_linear_287_95" x1="10.8572" y1="12.3992" x2="10.8572" y2="14.6943" gradientUnits="userSpaceOnUse">
<stop stop-color="#0047FF"/>
<stop offset="1" stop-color="#00C7FF"/>
</linearGradient>
<linearGradient id="paint4_linear_287_95" x1="10.9595" y1="20.5494" x2="10.9595" y2="26.4568" gradientUnits="userSpaceOnUse">
<stop stop-color="#0047FF"/>
<stop offset="1" stop-color="#00C7FF"/>
</linearGradient>
</defs>
</svg>
