<svg width="130" height="168" viewBox="0 0 130 168" fill="none" xmlns="http://www.w3.org/2000/svg">
<g opacity="0.5">
<path d="M19.0258 4.04055L36.6597 14.2441L37.1603 11.1694L19.5491 0.988586L19.0258 4.04055Z" fill="white"/>
<path d="M39.4811 15.8612L49.0831 21.4185L49.6064 18.3438L40.0045 12.8092L39.4811 15.8612Z" fill="white"/>
<path d="M64.0094 30.0505L70.9719 34.0591L71.4725 30.9843L64.5327 26.9758L64.0094 30.0505Z" fill="white"/>
<path d="M58.9581 27.1124L61.3245 28.479L61.8478 25.427L59.4587 24.0377L58.9581 27.1124Z" fill="white"/>
<path d="M51.95 23.0584L56.2504 25.5637L56.7737 22.489L52.4733 20.0064L51.95 23.0584Z" fill="white"/>
<path d="M32.9737 27.4541L39.9135 31.4854L40.4368 28.4107L33.497 24.4021L32.9737 27.4541Z" fill="white"/>
<path d="M16.6822 18.0477L30.2887 25.9053L30.7893 22.8534L17.1828 14.973L16.6822 18.0477Z" fill="white"/>
<path d="M36.1819 67.6534L49.7885 75.5338L50.3118 72.4591L36.7052 64.6014L36.1819 67.6534Z" fill="white"/>
<path d="M29.1966 63.5993L33.497 66.1046L34.0203 63.0299L29.6972 60.5473L29.1966 63.5993Z" fill="white"/>
<path d="M38.4572 53.6462L52.0638 61.5267L52.5871 58.4519L38.9806 50.5943L38.4572 53.6462Z" fill="white"/>
<path d="M31.4492 49.5922L35.7724 52.0975L36.2729 49.0228L31.9725 46.5402L31.4492 49.5922Z" fill="white"/>
<path d="M26.1476 128.1L0.527226 113.273L0.00390625 116.348L25.6471 131.175L26.1476 128.1Z" fill="white"/>
<path d="M35.1808 133.339L28.8553 129.672L28.332 132.724L34.6802 136.391L35.1808 133.339Z" fill="white"/>
<path d="M80.2326 136.3L54.5894 121.473L54.0889 124.525L79.7092 139.352L80.2326 136.3Z" fill="white"/>
<path d="M89.2657 141.515L82.9175 137.848L82.4169 140.923L88.7424 144.59L89.2657 141.515Z" fill="white"/>
<path d="M8.6502 110.312L1.71039 106.281L1.18707 109.356L8.12688 113.364L8.6502 110.312Z" fill="white"/>
<path d="M50.9034 119.377L43.9408 115.346L43.4402 118.421L50.3801 122.429L50.9034 119.377Z" fill="white"/>
<path d="M24.9417 119.742L11.3351 111.861L10.8118 114.913L24.4184 122.794L24.9417 119.742Z" fill="white"/>
<path d="M31.9498 123.773L27.6266 121.29L27.126 124.342L31.4264 126.848L31.9498 123.773Z" fill="white"/>
<path d="M48.3777 133.27L34.7712 125.39L34.2479 128.465L47.8544 136.322L48.3777 133.27Z" fill="white"/>
<path d="M55.363 137.302L51.0626 134.819L50.5393 137.871L54.8624 140.377L55.363 137.302Z" fill="white"/>
<path d="M49.7202 126.369L42.7804 122.361L42.2571 125.413L49.1969 129.421L49.7202 126.369Z" fill="white"/>
<path d="M66.0117 135.799L52.4051 127.918L51.9045 130.993L65.5111 138.851L66.0117 135.799Z" fill="white"/>
<path d="M73.0197 139.853L68.6966 137.347L68.196 140.422L72.4964 142.905L73.0197 139.853Z" fill="white"/>
<path d="M17.0917 107.511L2.87084 99.2889L2.3703 102.364L16.5684 110.563L17.0917 107.511Z" fill="white"/>
<path d="M30.0612 115.004L19.7766 109.06L19.2761 112.135L29.5379 118.079L30.0612 115.004Z" fill="white"/>
<path d="M39.6859 120.584L32.7461 116.576L32.2228 119.628L39.1853 123.636L39.6859 120.584Z" fill="white"/>
<path d="M107.036 151.764L92.838 143.565L92.3147 146.617L106.536 154.839L107.036 151.764Z" fill="white"/>
<path d="M120.006 159.28L109.744 153.336L109.22 156.388L119.505 162.332L120.006 159.28Z" fill="white"/>
<path d="M129.653 164.86L122.713 160.829L122.19 163.881L129.13 167.912L129.653 164.86Z" fill="white"/>
<path d="M101.484 59.363L115.705 67.585L116.206 64.5103L102.008 56.311L101.484 59.363Z" fill="white"/>
<path d="M88.5148 51.8697L98.7994 57.8142L99.3 54.7395L89.0382 48.795L88.5148 51.8697Z" fill="white"/>
<path d="M78.8901 46.2897L85.8299 50.2982L86.3305 47.2462L79.3907 43.2377L78.8901 46.2897Z" fill="white"/>
<path d="M96.7744 48.9317L110.973 57.1537L111.496 54.079L97.2749 45.8569L96.7744 48.9317Z" fill="white"/>
<path d="M83.8049 41.4384L94.0667 47.3829L94.59 44.3082L84.3054 38.3637L83.8049 41.4384Z" fill="white"/>
<path d="M74.1574 35.8584L81.12 39.8669L81.6205 36.8149L74.6808 32.7836L74.1574 35.8584Z" fill="white"/>
<path d="M39.3901 61.8683L44.1911 64.647L44.7144 61.595L39.9135 58.8164L39.3901 61.8683Z" fill="white"/>
<path d="M30.357 56.6526L36.7052 60.3195L37.2285 57.2448L30.8803 53.5779L30.357 56.6526Z" fill="white"/>
<path d="M18.366 100.564L4.14505 92.3423L3.64447 95.3943L17.8426 103.616L18.366 100.564Z" fill="white"/>
<path d="M31.3354 108.058L21.0508 102.113L20.5275 105.188L30.8121 111.11L31.3354 108.058Z" fill="white"/>
<path d="M40.9601 113.638L34.0203 109.606L33.497 112.681L40.4596 116.69L40.9601 113.638Z" fill="white"/>
<path d="M10.1292 88.1288L5.32819 85.3502L4.80487 88.4021L9.60585 91.1808L10.1292 88.1288Z" fill="white"/>
<path d="M19.1623 93.3445L12.8141 89.6776L12.3135 92.7523L18.639 96.4192L19.1623 93.3445Z" fill="white"/>
<path d="M32.0863 100.815L21.8473 94.8932L21.3467 97.9679L31.563 103.867L32.0863 100.815Z" fill="white"/>
<path d="M45.9204 42.5772L50.7214 45.3559L51.2447 42.3039L46.4437 39.5253L45.9204 42.5772Z" fill="white"/>
<path d="M36.8873 37.3615L43.2355 41.0285L43.736 37.9765L37.4106 34.3096L36.8873 37.3615Z" fill="white"/>
<path d="M23.9861 29.8911L34.2024 35.8128L34.7029 32.7381L24.4866 26.8391L23.9861 29.8911Z" fill="white"/>
<path d="M53.2242 53.9423L63.4633 59.8413L63.9639 56.7893L53.7476 50.8676L53.2242 53.9423Z" fill="white"/>
<path d="M36.5232 44.832L50.289 52.7808L50.8124 49.7288L37.0465 41.7573L36.5232 44.832Z" fill="white"/>
<path d="M29.5151 40.7779L33.8383 43.2605L34.3389 40.2085L30.0385 37.7032L29.5151 40.7779Z" fill="white"/>
<path d="M22.8029 36.8832L27.1033 39.3886L27.6266 36.3139L23.3262 33.8313L22.8029 36.8832Z" fill="white"/>
<path d="M23.7358 76.3993L37.3423 84.2797L37.8429 81.2277L24.2363 73.3473L23.7358 76.3993Z" fill="white"/>
<path d="M16.7277 72.368L21.0281 74.8505L21.5514 71.7986L17.251 69.2932L16.7277 72.368Z" fill="white"/>
<path d="M24.6686 84.6441L29.4696 87.4L29.993 84.348L25.192 81.5694L24.6686 84.6441Z" fill="white"/>
<path d="M41.5972 79.0185L46.3982 81.7972L46.9215 78.7452L42.1205 75.9666L41.5972 79.0185Z" fill="white"/>
<path d="M48.446 82.9815L59.9593 89.632L60.4826 86.58L48.9694 79.9067L48.446 82.9815Z" fill="white"/>
<path d="M62.0071 90.8164L68.8559 94.7794L69.3792 91.7046L62.5304 87.7416L62.0071 90.8164Z" fill="white"/>
<path d="M15.6355 79.4057L21.9837 83.0726L22.4843 80.0206L16.1589 76.3537L15.6355 79.4057Z" fill="white"/>
<path d="M15.0439 86.6028L19.8449 89.3815L20.3455 86.3068L15.5445 83.5281L15.0439 86.6028Z" fill="white"/>
<path d="M6.0108 81.3644L12.3363 85.0313L12.8596 81.9793L6.51138 78.3124L6.0108 81.3644Z" fill="white"/>
<path d="M34.6346 75.0099L38.9578 77.4925L39.4811 74.4405L35.158 71.9352L34.6346 75.0099Z" fill="white"/>
<path d="M27.9224 71.1153L32.2228 73.6206L32.7461 70.5459L28.4457 68.0633L27.9224 71.1153Z" fill="white"/>
<path d="M61.0287 35.9722L75.7274 44.4676L76.228 41.3929L61.5293 32.8975L61.0287 35.9722Z" fill="white"/>
<path d="M44.5552 26.4292L58.321 34.4007L58.8443 31.3487L45.0785 23.3772L44.5552 26.4292Z" fill="white"/>
<path d="M37.5471 22.3979L41.8703 24.8804L42.3708 21.8285L38.0704 19.3231L37.5471 22.3979Z" fill="white"/>
<path d="M30.8348 18.5032L35.1352 21.0085L35.6586 17.9338L31.3582 15.4512L30.8348 18.5032Z" fill="white"/>
<path d="M27.1715 16.385L17.8654 11.0099L18.3659 7.93521L27.6721 13.3103L27.1715 16.385Z" fill="white"/>
</g>
</svg>
