<svg width="30" height="30" viewBox="0 0 30 30" fill="none" xmlns="http://www.w3.org/2000/svg">
<path d="M7.8125 4.375C6.60437 4.375 5.625 5.35438 5.625 6.5625V9.6875C5.625 10.8956 6.60437 11.875 7.8125 11.875H10.9375C12.1456 11.875 13.125 10.8956 13.125 9.6875V6.5625C13.125 5.35438 12.1456 4.375 10.9375 4.375H7.8125ZM16.875 6.5625C16.875 5.35438 17.8544 4.375 19.0625 4.375H22.1875C23.3956 4.375 24.375 5.35438 24.375 6.5625V9.6875C24.375 10.8956 23.3956 11.875 22.1875 11.875H19.0625C17.8544 11.875 16.875 10.8956 16.875 9.6875V6.5625ZM19.0625 6.25C18.8899 6.25 18.75 6.38991 18.75 6.5625V9.6875C18.75 9.86009 18.8899 10 19.0625 10H22.1875C22.3601 10 22.5 9.86009 22.5 9.6875V6.5625C22.5 6.38991 22.3601 6.25 22.1875 6.25H19.0625ZM8.75 21.875C9.78554 21.875 10.625 21.0355 10.625 20C10.625 18.9645 9.78554 18.125 8.75 18.125C7.71446 18.125 6.875 18.9645 6.875 20C6.875 21.0355 7.71446 21.875 8.75 21.875ZM16.875 20C16.875 21.0355 16.0355 21.875 15 21.875C13.9645 21.875 13.125 21.0355 13.125 20C13.125 18.9645 13.9645 18.125 15 18.125C16.0355 18.125 16.875 18.9645 16.875 20ZM21.25 21.875C22.2855 21.875 23.125 21.0355 23.125 20C23.125 18.9645 22.2855 18.125 21.25 18.125C20.2145 18.125 19.375 18.9645 19.375 20C19.375 21.0355 20.2145 21.875 21.25 21.875ZM2.5 20C2.5 16.8934 5.0184 14.375 8.125 14.375H21.875C24.9816 14.375 27.5 16.8934 27.5 20C27.5 23.1066 24.9816 25.625 21.875 25.625H8.125C5.0184 25.625 2.5 23.1066 2.5 20ZM8.125 16.25C6.05394 16.25 4.375 17.9289 4.375 20C4.375 22.0711 6.05394 23.75 8.125 23.75H21.875C23.9461 23.75 25.625 22.0711 25.625 20C25.625 17.9289 23.9461 16.25 21.875 16.25H8.125Z" fill="white"/>
</svg>
