<svg width="30" height="30" viewBox="0 0 30 30" fill="none" xmlns="http://www.w3.org/2000/svg">
<path d="M19.5 4.49719C19.5 4.01953 19.1297 3 18.0047 3C17.3494 3 16.7452 3.42525 16.5567 4.08656L10.5567 25.0866C10.5173 25.2241 10.4985 25.3627 10.4985 25.4991C10.4578 25.9828 10.875 27 12 27C12.6525 27 13.253 26.5708 13.4414 25.9116L19.4414 4.91156C19.4813 4.77234 19.5 4.63359 19.5 4.49719ZM8.25 9.70781C8.25 8.85094 7.54922 8.20781 6.75 8.20781C6.36619 8.20781 5.98219 8.3543 5.68969 8.64731L0.439687 13.8973C0.146484 14.2312 0 14.6156 0 14.9578C0 15.3 0.146484 15.7688 0.439453 16.0594L5.68945 21.3094C5.98125 21.6047 6.36562 21.7078 6.75 21.7078C7.54922 21.7078 8.25 21.0642 8.25 20.2078C8.25 19.824 8.10352 19.44 7.81055 19.147L3.62109 14.9578L7.81078 10.7681C8.10469 10.5141 8.25 10.1344 8.25 9.70781ZM30 14.9578C30 14.574 29.8535 14.19 29.5605 13.897L24.3105 8.64703C24.0187 8.39531 23.6344 8.20781 23.25 8.20781C22.4508 8.20781 21.75 8.85141 21.75 9.70781C21.75 10.0916 21.8965 10.4756 22.1895 10.7686L26.3791 14.9583L22.1895 19.148C21.8953 19.4812 21.75 19.8656 21.75 20.2078C21.75 21.0647 22.4508 21.7078 23.25 21.7078C23.6338 21.7078 24.0178 21.5613 24.3103 21.2683L29.5603 16.0183C29.8547 15.7688 30 15.3844 30 14.9578Z" fill="white"/>
</svg>
