<svg width="109" height="73" viewBox="0 0 109 73" fill="none" xmlns="http://www.w3.org/2000/svg">
<path d="M46.0139 5.82581L79.829 25.3664C80.9256 25.9196 82.1366 26.2078 83.3647 26.2078C84.5928 26.2078 85.8039 25.9196 86.9005 25.3664C87.2985 25.204 87.6392 24.9266 87.879 24.5697C88.1187 24.2127 88.2468 23.7923 88.2468 23.3623C88.2468 22.9322 88.1187 22.5119 87.879 22.1549C87.6392 21.798 87.2985 21.5205 86.9005 21.3581L53.0854 1.81748C51.9888 1.26426 50.7777 0.976074 49.5496 0.976074C48.3214 0.976074 47.1105 1.26426 46.0139 1.81748C45.6158 1.97993 45.2751 2.25735 45.0353 2.61431C44.7955 2.97126 44.6675 3.39157 44.6675 3.82165C44.6675 4.25173 44.7955 4.6721 45.0353 5.02905C45.2751 5.38601 45.6158 5.66337 46.0139 5.82581Z" fill="#FE4C1C"/>
<path opacity="0.6" d="M31.2095 10.295C30.8034 10.4496 30.4539 10.7241 30.2073 11.082C29.9607 11.4399 29.8286 11.8644 29.8286 12.2991C29.8286 12.7339 29.9607 13.1583 30.2073 13.5163C30.4539 13.8742 30.8034 14.1486 31.2095 14.3033L83.2944 44.3658C84.391 44.919 85.6021 45.2072 86.8302 45.2072C88.0583 45.2072 89.2693 44.919 90.3659 44.3658C90.764 44.2033 91.1047 43.926 91.3445 43.569C91.5842 43.2121 91.7123 42.7917 91.7123 42.3616C91.7123 41.9315 91.5842 41.5112 91.3445 41.1543C91.1047 40.7973 90.764 40.5199 90.3659 40.3574L38.281 10.295C37.1854 9.73865 35.974 9.44873 34.7453 9.44873C33.5166 9.44873 32.3052 9.73865 31.2095 10.295Z" fill="#FE4C1C"/>
<path d="M16.3853 22.9215L26.8223 28.934C27.9189 29.4873 29.1299 29.7755 30.3581 29.7755C31.5862 29.7755 32.7972 29.4873 33.8938 28.934C34.2919 28.7716 34.6325 28.4942 34.8723 28.1373C35.1121 27.7803 35.2402 27.36 35.2402 26.9299C35.2402 26.4998 35.1121 26.0795 34.8723 25.7225C34.6325 25.3656 34.2919 25.0882 33.8938 24.9257L23.4568 18.9132C22.3631 18.3506 21.151 18.0571 19.9211 18.0571C18.6912 18.0571 17.4791 18.3506 16.3853 18.9132C15.9792 19.0679 15.6297 19.3424 15.3831 19.7003C15.1364 20.0582 15.0044 20.4827 15.0044 20.9174C15.0044 21.3521 15.1364 21.7766 15.3831 22.1345C15.6297 22.4924 15.9792 22.7669 16.3853 22.9215Z" fill="#FE4C1C"/>
<path d="M1.58117 31.4792L31.0291 48.4946C32.1257 49.0478 33.3368 49.336 34.5649 49.336C35.7931 49.336 37.004 49.0478 38.1006 48.4946C38.4987 48.3321 38.8394 48.0548 39.0792 47.6978C39.319 47.3409 39.447 46.9205 39.447 46.4904C39.447 46.0603 39.319 45.64 39.0792 45.2831C38.8394 44.9261 38.4987 44.6487 38.1006 44.4862L8.69274 27.3907C7.59613 26.8375 6.38509 26.5493 5.15695 26.5493C3.92881 26.5493 2.71782 26.8375 1.62122 27.3907C1.19545 27.5342 0.824918 27.8068 0.561018 28.1705C0.297117 28.5343 0.152946 28.9713 0.148542 29.4208C0.144137 29.8702 0.279721 30.3099 0.536442 30.6787C0.793162 31.0476 1.1583 31.3274 1.58117 31.4792Z" fill="#E82B88"/>
<path d="M76.2232 53.4048C76.6212 53.2423 76.9619 52.9649 77.2017 52.608C77.4415 52.251 77.5695 51.8307 77.5695 51.4006C77.5695 50.9705 77.4415 50.5502 77.2017 50.1932C76.9619 49.8363 76.6212 49.5589 76.2232 49.3965L46.7552 32.3209C45.6614 31.7583 44.4492 31.4648 43.2194 31.4648C41.9895 31.4648 40.7774 31.7583 39.6836 32.3209C39.2775 32.4756 38.928 32.7501 38.6814 33.108C38.4348 33.466 38.3027 33.8904 38.3027 34.3251C38.3027 34.7598 38.4348 35.1843 38.6814 35.5422C38.928 35.9001 39.2775 36.1746 39.6836 36.3293L69.1517 53.3447C70.2426 53.9103 71.4515 54.2105 72.6802 54.221C73.9089 54.2314 75.1228 53.9518 76.2232 53.4048Z" fill="#FE4C1C"/>
<path opacity="0.6" d="M99.2809 62.6438L97.5581 61.6417L89.1844 56.7716C88.0878 56.2184 86.8768 55.9302 85.6487 55.9302C84.4206 55.9302 83.2095 56.2184 82.1129 56.7716C81.7149 56.934 81.3742 57.2115 81.1344 57.5684C80.8947 57.9254 80.7666 58.3457 80.7666 58.7757C80.7666 59.2058 80.8947 59.6261 81.1344 59.9831C81.3742 60.34 81.7149 60.6175 82.1129 60.7799L90.4865 65.61L92.2294 66.612L100.583 71.4421C101.68 71.9953 102.891 72.2835 104.119 72.2835C105.347 72.2835 106.558 71.9953 107.655 71.4421C108.053 71.2796 108.393 71.0022 108.633 70.6453C108.873 70.2883 109.001 69.868 109.001 69.4379C109.001 69.0078 108.873 68.5875 108.633 68.2305C108.393 67.8736 108.053 67.5962 107.655 67.4338L99.2809 62.6438Z" fill="#FE4C1C"/>
</svg>
