<svg width="30" height="30" viewBox="0 0 30 30" fill="none" xmlns="http://www.w3.org/2000/svg">
<path d="M10.7451 25.379L8.125 22.7589L5.50489 25.379C6.23526 25.926 7.14229 26.25 8.125 26.25C9.10771 26.25 10.0147 25.926 10.7451 25.379ZM11.629 24.4951C12.176 23.7647 12.5 22.8577 12.5 21.875C12.5 20.8923 12.176 19.9853 11.629 19.2549L9.00888 21.875L11.629 24.4951ZM4.62101 19.2549C4.074 19.9853 3.75 20.8923 3.75 21.875C3.75 22.8577 4.074 23.7647 4.62101 24.4951L7.24112 21.875L4.62101 19.2549ZM5.50489 18.371L8.125 20.9911L10.7451 18.371C10.0147 17.824 9.10771 17.5 8.125 17.5C7.14229 17.5 6.23526 17.824 5.50489 18.371ZM8.125 13.75C5.0184 13.75 2.5 11.2316 2.5 8.125C2.5 5.0184 5.0184 2.5 8.125 2.5C11.2316 2.5 13.75 5.0184 13.75 8.125C13.75 11.2316 11.2316 13.75 8.125 13.75ZM8.125 12.5C10.5412 12.5 12.5 10.5412 12.5 8.125C12.5 5.70875 10.5412 3.75 8.125 3.75C5.70875 3.75 3.75 5.70875 3.75 8.125C3.75 10.5412 5.70875 12.5 8.125 12.5ZM9.51196 6.48457C9.72759 6.21503 10.1209 6.17133 10.3904 6.38696C10.66 6.60259 10.7037 6.99589 10.488 7.26543L7.98804 10.3904C7.75534 10.6813 7.32146 10.7053 7.05806 10.4419L5.80806 9.19194C5.56398 8.94786 5.56398 8.55214 5.80806 8.30806C6.05214 8.06398 6.44786 8.06398 6.69194 8.30806L7.44817 9.06429L9.51196 6.48457ZM16.875 7.5C16.5298 7.5 16.25 7.22018 16.25 6.875C16.25 6.52982 16.5298 6.25 16.875 6.25H26.875C27.2202 6.25 27.5 6.52982 27.5 6.875C27.5 7.22018 27.2202 7.5 26.875 7.5H16.875ZM16.875 10C16.5298 10 16.25 9.72018 16.25 9.375C16.25 9.02982 16.5298 8.75 16.875 8.75H24.375C24.7202 8.75 25 9.02982 25 9.375C25 9.72018 24.7202 10 24.375 10H16.875ZM8.125 27.5C5.0184 27.5 2.5 24.9816 2.5 21.875C2.5 18.7684 5.0184 16.25 8.125 16.25C11.2316 16.25 13.75 18.7684 13.75 21.875C13.75 24.9816 11.2316 27.5 8.125 27.5ZM16.875 21.25C16.5298 21.25 16.25 20.9702 16.25 20.625C16.25 20.2798 16.5298 20 16.875 20H26.875C27.2202 20 27.5 20.2798 27.5 20.625C27.5 20.9702 27.2202 21.25 26.875 21.25H16.875ZM16.875 23.75C16.5298 23.75 16.25 23.4702 16.25 23.125C16.25 22.7798 16.5298 22.5 16.875 22.5H24.375C24.7202 22.5 25 22.7798 25 23.125C25 23.4702 24.7202 23.75 24.375 23.75H16.875Z" fill="#888888"/>
</svg>
