<svg width="87" height="44" viewBox="0 0 87 44" fill="none" xmlns="http://www.w3.org/2000/svg">
<path d="M13.0111 4.34468L21.3046 9.13463C22.1761 9.57975 23.1408 9.81182 24.1193 9.81182C25.0978 9.81182 26.0623 9.57975 26.9339 9.13463C27.2782 9.02503 27.5788 8.80864 27.7921 8.5168C28.0054 8.22496 28.1204 7.87279 28.1204 7.51125C28.1204 7.14971 28.0054 6.79754 27.7921 6.5057C27.5788 6.21386 27.2782 5.99749 26.9339 5.88788L18.6403 1.09793C17.7656 0.663539 16.8023 0.4375 15.8257 0.4375C14.8492 0.4375 13.8859 0.663539 13.0111 1.09793C12.6764 1.21741 12.3867 1.43756 12.1819 1.72819C11.9771 2.01882 11.8672 2.3657 11.8672 2.7213C11.8672 3.07689 11.9771 3.42379 12.1819 3.71442C12.3867 4.00505 12.6764 4.2252 13.0111 4.34468Z" fill="#E82B88"/>
<path opacity="0.6" d="M1.23227 11.1587L24.6504 24.6868C25.5252 25.1212 26.4885 25.3473 27.465 25.3473C28.4416 25.3473 29.4049 25.1212 30.2796 24.6868C30.624 24.5772 30.9246 24.3609 31.1379 24.069C31.3512 23.7772 31.4662 23.425 31.4662 23.0635C31.4662 22.7019 31.3512 22.3498 31.1379 22.0579C30.9246 21.7661 30.624 21.5497 30.2796 21.4401L6.86143 7.97213C5.98993 7.527 5.02536 7.29492 4.04685 7.29492C3.06834 7.29492 2.10377 7.527 1.23227 7.97213C0.916898 8.10229 0.64724 8.3232 0.457505 8.60685C0.267771 8.8905 0.166504 9.22413 0.166504 9.56543C0.166504 9.90674 0.267771 10.2404 0.457505 10.524C0.64724 10.8077 0.916898 11.0286 1.23227 11.1587Z" fill="#FE4C1C"/>
<path opacity="0.6" d="M60.6089 28.5951C60.9437 28.4756 61.2333 28.2555 61.4381 27.9649C61.6429 27.6742 61.7528 27.3273 61.7528 26.9717C61.7528 26.6161 61.6429 26.2693 61.4381 25.9786C61.2333 25.688 60.9437 25.4678 60.6089 25.3484L37.1907 11.8203C36.3192 11.3751 35.3547 11.1431 34.3761 11.1431C33.3976 11.1431 32.4331 11.3751 31.5616 11.8203C31.2172 11.9299 30.9165 12.1462 30.7032 12.4381C30.4899 12.7299 30.375 13.0821 30.375 13.4436C30.375 13.8052 30.4899 14.1574 30.7032 14.4492C30.9165 14.741 31.2172 14.9574 31.5616 15.067L54.9797 28.5951C55.8512 29.0402 56.8158 29.2723 57.7943 29.2723C58.7728 29.2723 59.7374 29.0402 60.6089 28.5951Z" fill="#FE4C1C"/>
<path d="M78.9387 36.0305L77.5564 35.2489L70.9055 31.4009C70.0376 30.9559 69.0763 30.7239 68.101 30.7239C67.1257 30.7239 66.1644 30.9559 65.2964 31.4009C64.9521 31.5105 64.6515 31.7268 64.4382 32.0187C64.2248 32.3105 64.1099 32.6627 64.1099 33.0243C64.1099 33.3858 64.2248 33.738 64.4382 34.0298C64.6515 34.3217 64.9521 34.538 65.2964 34.6476L71.9473 38.4956L73.3095 39.2772L79.9803 43.1252C80.8483 43.5702 81.8096 43.8023 82.7849 43.8023C83.7602 43.8023 84.7215 43.5702 85.5895 43.1252C85.9339 43.0156 86.2345 42.7993 86.4478 42.5074C86.6611 42.2156 86.7761 41.8634 86.7761 41.5019C86.7761 41.1403 86.6611 40.7882 86.4478 40.4963C86.2345 40.2045 85.9339 39.9881 85.5895 39.8785L78.9387 36.0305Z" fill="#FE4C1C"/>
</svg>
