<svg width="30" height="30" viewBox="0 0 30 30" fill="none" xmlns="http://www.w3.org/2000/svg">
<path d="M26.2984 16.5999L25.1484 15.4749L15.4609 25.1499L16.6234 26.3124C17.5984 27.2874 18.6109 27.7749 19.6109 27.7749C20.6109 27.7749 21.6234 27.2874 22.5984 26.3124L26.2984 22.6124C28.2859 20.6124 28.2859 18.5999 26.2984 16.5999Z" fill="white"/>
<path d="M13.3618 3.66243C11.3992 1.69993 9.33672 1.69993 7.37422 3.66243L3.66172 7.36243C1.71172 9.32493 1.71172 11.3874 3.66172 13.3499L4.81172 14.4999L14.4993 4.81243L13.3618 3.66243Z" fill="white"/>
<path opacity="0.4" d="M27.2613 4.92511C25.6238 9.01261 21.8863 14.3501 18.3238 17.8376C17.8113 14.6126 15.2363 12.0876 11.9863 11.6376C15.4863 8.06261 20.8613 4.27511 24.9613 2.62511C25.6863 2.35011 26.4113 2.56261 26.8613 3.01261C27.3363 3.48761 27.5613 4.20011 27.2613 4.92511Z" fill="white"/>
<path d="M18.3234 17.8376C17.6984 18.4501 17.0734 19.0126 16.4734 19.4876L14.0109 21.4626C13.6984 21.6876 13.3859 21.8751 13.0359 22.0251C13.0359 21.7876 13.0109 21.5501 12.9859 21.3001C12.8484 20.2626 12.3734 19.2751 11.5359 18.4376C10.6734 17.5876 9.64844 17.1001 8.58594 16.9626C8.33594 16.9376 8.07344 16.9251 7.83594 16.9376C7.97344 16.5501 8.18594 16.1876 8.44844 15.8876L10.3984 13.4251C10.8609 12.8376 11.3984 12.2376 11.9859 11.6376C15.2359 12.0876 17.8109 14.6126 18.3234 17.8376Z" fill="white"/>
<path opacity="0.4" d="M13.0373 22.0248C13.0373 23.3998 12.5123 24.7123 11.5122 25.6998C10.7497 26.4748 9.72472 26.9998 8.47472 27.1498L5.41221 27.4873C3.73721 27.6748 2.29971 26.2373 2.48721 24.5498L2.82471 21.4748C3.12471 18.7373 5.41221 16.9873 7.83721 16.9373C8.07471 16.9248 8.33721 16.9373 8.58721 16.9623C9.64971 17.0998 10.6747 17.5873 11.5372 18.4373C12.3747 19.2748 12.8498 20.2623 12.9873 21.2998C13.0123 21.5498 13.0373 21.7873 13.0373 22.0248Z" fill="white"/>
</svg>
