<svg width="30" height="30" viewBox="0 0 30 30" fill="none" xmlns="http://www.w3.org/2000/svg">
<path opacity="0.4" d="M27.5 10V20.2375C27.5 24.7875 24.7875 27.5 20.2375 27.5H9.7625C5.2125 27.5 2.5 24.7875 2.5 20.2375V10.0125L27.5 10Z" fill="white"/>
<path d="M11.2512 22.1874C11.1137 22.1874 10.9637 22.1499 10.8387 22.0874C9.87617 21.5999 9.05117 20.8749 8.45117 19.9749C7.95117 19.2249 7.95117 18.2624 8.45117 17.5124C9.05117 16.6124 9.87617 15.8874 10.8387 15.4124C11.3012 15.1749 11.8637 15.3749 12.1012 15.8374C12.3387 16.2999 12.1512 16.8624 11.6762 17.0999C11.0012 17.4374 10.4262 17.9499 10.0137 18.5749C9.93867 18.6874 9.93867 18.8374 10.0137 18.9624C10.4262 19.5874 11.0012 20.0999 11.6762 20.4374C12.1387 20.6749 12.3262 21.2374 12.1012 21.6999C11.9262 21.9999 11.5887 22.1874 11.2512 22.1874Z" fill="white"/>
<path d="M19.0106 22.1874C18.6606 22.1874 18.3356 21.9999 18.1731 21.6749C17.9356 21.2124 18.1231 20.6499 18.5981 20.4124C19.2731 20.0749 19.8481 19.5624 20.2606 18.9374C20.3356 18.8249 20.3356 18.6749 20.2606 18.5499C19.8481 17.9249 19.2731 17.4124 18.5981 17.0749C18.1356 16.8374 17.9481 16.2749 18.1731 15.8124C18.4106 15.3499 18.9731 15.1624 19.4356 15.3874C20.3981 15.8749 21.2231 16.5999 21.8231 17.4999C22.3231 18.2499 22.3231 19.2124 21.8231 19.9624C21.2231 20.8624 20.3981 21.5874 19.4356 22.0624C19.2856 22.1499 19.1481 22.1874 19.0106 22.1874Z" fill="white"/>
<path d="M27.5 9.7625V10L2.5 10.0125V9.7625C2.5 5.2125 5.2125 2.5 9.7625 2.5H20.2375C24.7875 2.5 27.5 5.2125 27.5 9.7625Z" fill="white"/>
</svg>
