<svg width="30" height="30" viewBox="0 0 30 30" fill="none" xmlns="http://www.w3.org/2000/svg">
<path d="M7.08019 12.8735C8.0554 12.6122 8.63415 11.6098 8.37285 10.6346C8.11156 9.6594 7.10917 9.08065 6.13395 9.34194C5.15873 9.60324 4.57999 10.6056 4.84128 11.5809C5.10258 12.5561 6.10497 13.1348 7.08019 12.8735Z" fill="#888888"/>
<path d="M8.76558 22.8516H6.53902C6.53902 22.8516 6.42183 22.8516 6.32808 22.8516C5.32027 22.7578 4.45308 22.0313 4.19527 21.0235L2.67183 15.3516C2.57808 15.0235 2.24995 14.8594 1.9687 14.9297C1.64058 15.0235 1.47652 15.3516 1.54683 15.6328L3.04683 21.3047C3.44527 22.7813 4.68745 23.8594 6.21089 23.9766C6.35152 24 6.51558 24 6.51558 24H8.74214C9.07027 24 9.30464 23.7422 9.32808 23.4141C9.32808 23.086 9.0937 22.8516 8.76558 22.8516Z" fill="#888888"/>
<path d="M11.3905 19.6641H8.3436C8.27329 18.5156 8.08579 17.3672 7.80454 16.2187C7.7811 16.125 7.71079 15.8906 7.71079 15.8672C7.31235 14.3906 5.9061 13.4531 4.42954 13.5937C4.42954 13.5937 4.24204 13.6172 4.19517 13.6172C3.6561 13.7578 3.32798 14.3203 3.4686 14.8828L5.03892 20.7187C5.20298 21.375 5.76548 21.8672 6.4686 21.9141H6.60923H10.242V26.0859C10.242 26.7187 10.7342 27.2344 11.3905 27.2344C12.0233 27.2344 12.5389 26.7422 12.5389 26.0859V20.8125C12.5389 20.5078 12.4217 20.2266 12.1874 20.0156C11.9764 19.7812 11.6717 19.6641 11.3905 19.6641Z" fill="#888888"/>
<path d="M25.5303 11.5954C25.7916 10.6202 25.2129 9.61782 24.2377 9.35653C23.2624 9.09523 22.26 9.67397 21.9988 10.6492C21.7375 11.6244 22.3162 12.6268 23.2914 12.8881C24.2666 13.1494 25.269 12.5706 25.5303 11.5954Z" fill="#888888"/>
<path d="M21.1406 22.8516H23.3672C23.3672 22.8516 23.4844 22.8516 23.5781 22.8516C24.5859 22.7578 25.4531 22.0313 25.7109 21.0235L27.2344 15.3516C27.3281 15.0235 27.6562 14.8594 27.9375 14.9297C28.2656 15.0235 28.4297 15.3516 28.3594 15.6328L26.8594 21.3047C26.4609 22.7813 25.2187 23.8594 23.6953 23.9766C23.5547 24 23.3906 24 23.3906 24H21.1641C20.8359 24 20.6016 23.7422 20.5781 23.4141C20.5781 23.086 20.8359 22.8516 21.1406 22.8516Z" fill="#888888"/>
<path d="M18.5156 19.6641H21.5625C21.6328 18.5156 21.8203 17.3672 22.1016 16.2187C22.125 16.125 22.1953 15.8906 22.1953 15.8672C22.5937 14.3906 24 13.4531 25.4766 13.5937C25.4766 13.5937 25.6641 13.6172 25.7109 13.6172C26.25 13.7578 26.5781 14.3203 26.4375 14.8828L24.8438 20.7187C24.6797 21.375 24.1172 21.8672 23.4141 21.9141H23.2734H19.6641V26.0859C19.6641 26.7187 19.1719 27.2344 18.5156 27.2344C17.8594 27.2344 17.3672 26.7422 17.3672 26.0859V20.8125C17.3672 20.5078 17.4844 20.2266 17.7187 20.0156C17.9297 19.7812 18.2344 19.6641 18.5156 19.6641Z" fill="#888888"/>
<path d="M20.9531 16.5938H9.09375V18H20.9531V16.5938Z" fill="#888888"/>
</svg>
