<svg width="30" height="30" viewBox="0 0 30 30" fill="none" xmlns="http://www.w3.org/2000/svg">
<path d="M14.4578 1.27157L13.6207 0.849657L13.6181 0.854967L14.4578 1.27157ZM15.5428 1.27157L16.3827 0.85496L16.3801 0.849665L15.5428 1.27157ZM16.8041 3.81405L15.9643 4.23066L15.9656 4.2334L16.8041 3.81405ZM20.0878 4.55029L19.9538 5.47816L19.9575 5.47866L20.0878 4.55029ZM20.5741 4.95404L21.4641 4.65949L21.4627 4.6552L20.5741 4.95404ZM20.4228 5.56279L19.7741 4.88591L19.769 4.89091L20.4228 5.56279ZM18.3753 7.55526L19.0263 8.22992L19.0292 8.22712L18.3753 7.55526ZM18.2028 8.079L17.2783 8.2348L17.2791 8.23852L18.2028 8.079ZM18.6878 10.8877L19.6126 10.7336L19.6117 10.7282L18.6878 10.8877ZM18.4453 11.469L17.9043 10.7033L17.9006 10.7059L18.4453 11.469ZM17.8091 11.5127L18.2442 10.6823L18.2426 10.6815L17.8091 11.5127ZM15.2828 10.1952L14.8433 11.0233L14.8493 11.0265L15.2828 10.1952ZM14.7178 10.1952L15.1522 11.026L15.1575 11.0233L14.7178 10.1952ZM11.5617 11.469L12.1064 10.7059L12.1027 10.7033L11.5617 11.469ZM11.3192 10.8877L10.3954 10.7282L10.3944 10.7336L11.3192 10.8877ZM11.8042 8.079L12.728 8.23852L12.7286 8.2348L11.8042 8.079ZM11.6317 7.55526L10.9789 8.22812L10.9807 8.22992L11.6317 7.55526ZM9.57796 5.56279L10.2308 4.88991L10.2266 4.88594L9.57796 5.56279ZM9.42671 4.95404L8.53812 4.6552L8.5367 4.65949L9.42671 4.95404ZM9.91296 4.55029L10.0434 5.47867L10.047 5.47815L9.91296 4.55029ZM13.1967 3.81405L14.0351 4.2334L14.0365 4.23066L13.1967 3.81405ZM15.2951 1.6935C15.2676 1.74806 15.2255 1.79392 15.1735 1.82596L14.1902 0.229455C13.9466 0.379475 13.7495 0.594179 13.6207 0.849657L15.2951 1.6935ZM15.1735 1.82596C15.1215 1.85801 15.0615 1.87497 15.0003 1.87497V0C14.7143 0 14.4338 0.0794355 14.1902 0.229455L15.1735 1.82596ZM15.0003 1.87497C14.9393 1.87497 14.8793 1.85801 14.8273 1.82596L15.8106 0.229455C15.567 0.0794355 15.2865 0 15.0003 0V1.87497ZM14.8273 1.82596C14.7753 1.79392 14.7332 1.74806 14.7057 1.6935L16.3801 0.849665C16.2513 0.594186 16.0542 0.379475 15.8106 0.229455L14.8273 1.82596ZM14.7031 1.6882L15.9643 4.23066L17.644 3.39744L16.3827 0.85496L14.7031 1.6882ZM15.9656 4.2334C16.077 4.45589 16.2403 4.64812 16.4421 4.79371L17.5395 3.27337C17.5831 3.3049 17.6185 3.34652 17.6426 3.39471L15.9656 4.2334ZM16.4421 4.79371C16.6438 4.9393 16.8777 5.0339 17.124 5.06942L17.3918 3.21369C17.4452 3.22137 17.4957 3.24185 17.5395 3.27337L16.4421 4.79371ZM17.124 5.06942L19.9538 5.47816L20.2218 3.62244L17.3918 3.21369L17.124 5.06942ZM19.9575 5.47866C19.8956 5.46999 19.8375 5.44426 19.7893 5.40439L20.9872 3.96186C20.7673 3.77936 20.5011 3.66166 20.2182 3.62191L19.9575 5.47866ZM19.7893 5.40439C19.7413 5.36451 19.7053 5.31205 19.6855 5.25287L21.4627 4.6552C21.3716 4.38442 21.207 4.14435 20.9872 3.96186L19.7893 5.40439ZM19.6841 5.24859C19.6633 5.18581 19.6607 5.11842 19.6767 5.05422L21.4963 5.50634C21.5658 5.22667 21.5546 4.93305 21.4641 4.65949L19.6841 5.24859ZM19.6767 5.05422C19.6926 4.99004 19.7263 4.93166 19.7741 4.88591L21.0715 6.23962C21.2796 6.04025 21.4268 5.78601 21.4963 5.50634L19.6767 5.05422ZM19.769 4.89091L17.7216 6.88339L19.0292 8.22712L21.0766 6.23465L19.769 4.89091ZM17.7245 6.8806C17.5456 7.05309 17.4116 7.26655 17.3338 7.50252L19.1147 8.08906C19.0971 8.14251 19.0668 8.19085 19.0263 8.22992L17.7245 6.8806ZM17.3338 7.50252C17.2562 7.73849 17.237 7.98984 17.2783 8.2348L19.1273 7.9232C19.1367 7.97869 19.1323 8.03561 19.1147 8.08906L17.3338 7.50252ZM17.2791 8.23852L17.7641 11.0472L19.6117 10.7282L19.1267 7.91949L17.2791 8.23852ZM17.7631 11.0418C17.7525 10.9778 17.7601 10.9121 17.785 10.8523L19.5155 11.5742C19.6262 11.3087 19.6598 11.0174 19.6126 10.7336L17.7631 11.0418ZM17.785 10.8523C17.81 10.7924 17.8513 10.7408 17.9043 10.7033L18.9863 12.2346C19.2213 12.0686 19.4047 11.8397 19.5155 11.5742L17.785 10.8523ZM17.9006 10.7059C17.9501 10.6706 18.0085 10.6497 18.0691 10.6455L18.1977 12.5161C18.4831 12.4965 18.7573 12.3981 18.9901 12.232L17.9006 10.7059ZM18.0691 10.6455C18.1297 10.6414 18.1903 10.6541 18.2442 10.6823L17.374 12.3431C17.6272 12.4758 17.9125 12.5357 18.1977 12.5161L18.0691 10.6455ZM18.2426 10.6815L15.7163 9.36399L14.8493 11.0265L17.3756 12.3439L18.2426 10.6815ZM15.7225 9.36717C15.5001 9.24914 15.2522 9.1874 15.0003 9.1874V11.0624C14.9456 11.0624 14.8917 11.049 14.8433 11.0233L15.7225 9.36717ZM15.0003 9.1874C14.7486 9.1874 14.5007 9.24914 14.2783 9.36717L15.1575 11.0233C15.1091 11.049 15.0552 11.0624 15.0003 11.0624V9.1874ZM14.2836 9.36444L11.7636 10.6819L12.6323 12.3435L15.1522 11.026L14.2836 9.36444ZM11.7636 10.6819C11.8174 10.6537 11.8773 10.6414 11.9379 10.6455L11.8093 12.5161C12.0946 12.5357 12.379 12.4762 12.6323 12.3435L11.7636 10.6819ZM11.9379 10.6455C11.9986 10.6497 12.0569 10.6706 12.1064 10.7059L11.017 12.232C11.2497 12.3981 11.524 12.4965 11.8093 12.5161L11.9379 10.6455ZM12.1027 10.7033C12.1557 10.7408 12.197 10.7924 12.222 10.8523L10.4916 11.5742C10.6024 11.8397 10.7857 12.0686 11.0206 12.2346L12.1027 10.7033ZM12.222 10.8523C12.247 10.9121 12.2546 10.9778 12.2439 11.0418L10.3944 10.7336C10.3472 11.0174 10.3808 11.3087 10.4916 11.5742L12.222 10.8523ZM12.243 11.0472L12.728 8.23852L10.8804 7.91949L10.3954 10.7282L12.243 11.0472ZM12.7286 8.2348C12.77 7.98982 12.7508 7.73847 12.6732 7.50252L10.8923 8.08906C10.8747 8.03562 10.8704 7.97869 10.8797 7.9232L12.7286 8.2348ZM12.6732 7.50252C12.5955 7.26656 12.4614 7.0531 12.2826 6.8806L10.9807 8.22992C10.9403 8.19085 10.9099 8.1425 10.8923 8.08906L12.6732 7.50252ZM12.2845 6.8824L10.2308 4.88991L8.92517 6.23565L10.9789 8.22812L12.2845 6.8824ZM10.2266 4.88594C10.2744 4.93169 10.3082 4.99004 10.3241 5.05422L8.50447 5.50634C8.57396 5.786 8.72126 6.04025 8.9293 6.23962L10.2266 4.88594ZM10.3241 5.05422C10.3401 5.11841 10.3375 5.1858 10.3167 5.24859L8.5367 4.65949C8.44616 4.93306 8.43499 5.22667 8.50447 5.50634L10.3241 5.05422ZM10.3153 5.25287C10.2954 5.31205 10.2594 5.36451 10.2114 5.40439L9.01362 3.96186C8.79384 4.14435 8.62919 4.38442 8.53812 4.6552L10.3153 5.25287ZM10.2114 5.40439C10.1634 5.44426 10.1052 5.47 10.0434 5.47867L9.78255 3.62191C9.49965 3.66166 9.2334 3.77936 9.01362 3.96186L10.2114 5.40439ZM10.047 5.47815L12.877 5.06941L12.609 3.21367L9.77895 3.62244L10.047 5.47815ZM12.877 5.06941C13.1231 5.03389 13.357 4.9393 13.5587 4.79371L12.4614 3.27337C12.5051 3.24185 12.5557 3.22136 12.609 3.21367L12.877 5.06941ZM13.5587 4.79371C13.7603 4.64812 13.9238 4.45589 14.0351 4.2334L12.3582 3.39471C12.3823 3.34652 12.4177 3.3049 12.4614 3.27337L13.5587 4.79371ZM14.0365 4.23066L15.2977 1.6882L13.6181 0.854967L12.3568 3.39744L14.0365 4.23066Z" fill="#71717A"/>
<path d="M3.10163 13.3327L2.55912 14.0974L2.5615 14.099L3.10163 13.3327ZM2.86038 12.7502L1.93651 12.5911L1.93615 12.5932L2.86038 12.7502ZM0.967907 6.82161L0.079306 6.52278L0.0775864 6.52799L0.967907 6.82161ZM1.45415 6.41788L1.58456 7.34625L1.58822 7.34573L1.45415 6.41788ZM4.28287 6.00913L4.15106 5.08095L4.1488 5.08128L4.28287 6.00913ZM4.73786 5.68163L5.5762 6.10128L5.57753 6.09858L4.73786 5.68163ZM6.00035 3.13916L5.16236 2.71884L5.16068 2.72221L6.00035 3.13916ZM6.54018 3.7429C7.05795 3.74436 7.47886 3.32583 7.48033 2.80806C7.4818 2.29031 7.06326 1.86939 6.5455 1.86793L6.54018 3.7429ZM7.43341 13.4379C7.89251 13.6772 8.45873 13.4991 8.69813 13.04C8.93752 12.5809 8.75941 12.0147 8.30032 11.7753L7.43341 13.4379ZM7.25755 11.2315C7.03633 11.1162 6.79043 11.056 6.54097 11.056V12.931C6.48866 12.931 6.43712 12.9184 6.39073 12.8941L7.25755 11.2315ZM6.54097 11.056C6.2915 11.056 6.04571 11.1162 5.8245 11.2315L6.69107 12.8942C6.64468 12.9185 6.59327 12.931 6.54097 12.931V11.056ZM5.8245 11.2315L3.3059 12.5439L4.17235 14.2067L6.69107 12.8942L5.8245 11.2315ZM3.3059 12.5439C3.35861 12.5164 3.41745 12.5041 3.47677 12.5081L3.35205 14.379C3.63627 14.3979 3.91981 14.3385 4.17235 14.2067L3.3059 12.5439ZM3.47677 12.5081C3.53608 12.5121 3.59317 12.5322 3.64176 12.5665L2.5615 14.099C2.79432 14.2631 3.06783 14.36 3.35205 14.379L3.47677 12.5081ZM3.64415 12.5682C3.69711 12.6059 3.7384 12.6576 3.76325 12.7176L2.03096 13.435C2.14116 13.7011 2.32423 13.9307 2.55912 14.0974L3.64415 12.5682ZM3.76325 12.7176C3.7881 12.7776 3.7955 12.8434 3.78462 12.9074L1.93615 12.5932C1.88788 12.8771 1.92075 13.169 2.03096 13.435L3.76325 12.7176ZM3.78426 12.9095L4.26801 10.102L2.42031 9.78331L1.93651 12.5911L3.78426 12.9095ZM4.26801 10.102C4.31037 9.85667 4.29201 9.60499 4.21462 9.36834L2.4325 9.95104C2.41481 9.89696 2.41063 9.83938 2.42031 9.78331L4.26801 10.102ZM4.21462 9.36834C4.13725 9.13168 4.00315 8.91755 3.82401 8.74461L2.52092 10.0928C2.48 10.0532 2.45017 10.0051 2.4325 9.95104L4.21462 9.36834ZM3.82401 8.74461L1.76986 6.75669L0.46593 8.10401L2.52092 10.0928L3.82401 8.74461ZM1.76986 6.75669C1.81678 6.80211 1.85 6.85985 1.86562 6.92326L0.0450939 7.37185C0.11378 7.6506 0.259633 7.90436 0.46593 8.10401L1.76986 6.75669ZM1.86562 6.92326C1.88125 6.98668 1.87868 7.05321 1.85822 7.11524L0.0775864 6.52799C-0.0123314 6.80064 -0.0235925 7.0931 0.0450939 7.37185L1.86562 6.92326ZM1.8565 7.12045C1.8366 7.17963 1.80061 7.23209 1.75258 7.27196L0.554811 5.82944C0.335026 6.01193 0.170368 6.25201 0.079306 6.52278L1.8565 7.12045ZM1.75258 7.27196C1.70456 7.31184 1.64638 7.33756 1.58456 7.34625L1.32375 5.4895C1.04084 5.52924 0.774595 5.64694 0.554811 5.82944L1.75258 7.27196ZM1.58822 7.34573L4.41695 6.93698L4.1488 5.08128L1.32007 5.49001L1.58822 7.34573ZM4.41468 6.9373C4.66146 6.90226 4.89605 6.80789 5.09835 6.66228L4.00301 5.1405C4.04682 5.10898 4.09762 5.08854 4.15106 5.08095L4.41468 6.9373ZM5.09835 6.66228C5.30065 6.51666 5.46462 6.32416 5.5762 6.10128L3.89953 5.26199C3.9237 5.21373 3.95921 5.17204 4.00301 5.1405L5.09835 6.66228ZM5.57753 6.09858L6.84002 3.5561L5.16068 2.72221L3.8982 5.26469L5.57753 6.09858ZM6.83833 3.55948C6.81061 3.61475 6.76802 3.6612 6.71535 3.6936L5.73288 2.09663C5.48855 2.24695 5.29098 2.46243 5.16236 2.71884L6.83833 3.55948ZM6.71535 3.6936C6.66268 3.726 6.60202 3.74308 6.54018 3.7429L6.5455 1.86793C6.25863 1.86711 5.97722 1.94631 5.73288 2.09663L6.71535 3.6936ZM8.30032 11.7753L7.25755 11.2315L6.39073 12.8941L7.43341 13.4379L8.30032 11.7753Z" fill="#71717A"/>
<path d="M26.8984 13.3327L27.4386 14.099L27.4409 14.0974L26.8984 13.3327ZM27.1397 12.7502L28.0639 12.5932L28.0636 12.5911L27.1397 12.7502ZM26.8272 9.41909L27.4783 10.0936L27.4801 10.0919L26.8272 9.41909ZM29.0322 6.81661L29.9226 6.52299L29.9208 6.51779L29.0322 6.81661ZM28.5459 6.41288L28.4119 7.34073L28.4156 7.34125L28.5459 6.41288ZM25.7172 6.00413L25.8513 5.07628L25.8491 5.07595L25.7172 6.00413ZM25.2622 5.67663L24.4229 6.09424L24.4239 6.09628L25.2622 5.67663ZM23.9998 3.13916L24.8391 2.72155L24.8377 2.71884L23.9998 3.13916ZM23.4546 1.86793C22.9368 1.86939 22.5183 2.29031 22.5198 2.80806C22.5212 3.32583 22.9422 3.74436 23.4599 3.7429L23.4546 1.86793ZM21.6871 11.7819C21.2282 12.0217 21.0506 12.5881 21.2904 13.047C21.5302 13.5059 22.0966 13.6835 22.5554 13.4436L21.6871 11.7819ZM23.6093 12.8929C23.5629 12.9171 23.5114 12.9297 23.4592 12.9297V11.0547C23.2097 11.0547 22.9639 11.1149 22.7427 11.2302L23.6093 12.8929ZM23.4592 12.9297C23.4068 12.9297 23.3553 12.9171 23.3089 12.8929L24.1758 11.2303C23.9547 11.115 23.7086 11.0547 23.4592 11.0547V12.9297ZM23.3089 12.8929L25.8274 14.2065L26.6946 12.5441L24.1758 11.2303L23.3089 12.8929ZM25.8274 14.2065C26.0801 14.3382 26.3638 14.3979 26.6481 14.379L26.5233 12.5081C26.5827 12.5041 26.6419 12.5166 26.6946 12.5441L25.8274 14.2065ZM26.6481 14.379C26.9323 14.36 27.2058 14.2631 27.4386 14.099L26.3583 12.5665C26.4069 12.5322 26.4641 12.5121 26.5233 12.5081L26.6481 14.379ZM27.4409 14.0974C27.6758 13.9307 27.8589 13.7011 27.9692 13.435L26.2368 12.7176C26.2617 12.6576 26.3029 12.6059 26.3559 12.5682L27.4409 14.0974ZM27.9692 13.435C28.0793 13.169 28.1122 12.8771 28.0639 12.5932L26.2154 12.9074C26.2046 12.8434 26.2121 12.7776 26.2368 12.7176L27.9692 13.435ZM28.0636 12.5911L27.5798 9.78364L25.7321 10.102L26.2158 12.9095L28.0636 12.5911ZM27.5798 9.78364C27.5894 9.8397 27.5853 9.89696 27.5676 9.95104L25.7854 9.36834C25.7081 9.60499 25.6897 9.85666 25.7321 10.102L27.5798 9.78364ZM27.5676 9.95104C27.5499 10.0051 27.5193 10.054 27.4783 10.0936L26.1761 8.74461C25.9969 8.91755 25.8628 9.13169 25.7854 9.36834L27.5676 9.95104ZM27.4801 10.0919L29.5351 8.09821L28.2302 6.7517L26.1744 8.74623L27.4801 10.0919ZM29.5351 8.09821C29.7413 7.89855 29.8863 7.6456 29.9551 7.36685L28.1344 6.91826C28.1501 6.85486 28.1833 6.79713 28.2302 6.7517L29.5351 8.09821ZM29.9551 7.36685C30.0237 7.0881 30.0124 6.79564 29.9226 6.52299L28.1419 7.11024C28.1214 7.04821 28.1188 6.98168 28.1344 6.91826L29.9551 7.36685ZM29.9208 6.51779C29.8297 6.24701 29.6651 6.00694 29.4453 5.82444L28.2476 7.26696C28.1994 7.22709 28.1636 7.17463 28.1436 7.11545L29.9208 6.51779ZM29.4453 5.82444C29.2256 5.64194 28.9593 5.52424 28.6763 5.4845L28.4156 7.34125C28.3537 7.33256 28.2956 7.30684 28.2476 7.26696L29.4453 5.82444ZM28.6801 5.48501L25.8513 5.07628L25.5832 6.93198L28.4119 7.34073L28.6801 5.48501ZM25.8491 5.07595C25.9024 5.08354 25.9533 5.10398 25.9971 5.1355L24.9018 6.65728C25.1041 6.80289 25.3387 6.89726 25.5854 6.9323L25.8491 5.07595ZM25.9971 5.1355C26.0409 5.16704 26.0764 5.20871 26.1006 5.25699L24.4239 6.09628C24.5354 6.31916 24.6994 6.51166 24.9018 6.65728L25.9971 5.1355ZM26.1016 5.25903L24.8391 2.72155L23.1604 3.55676L24.4229 6.09424L26.1016 5.25903ZM24.8377 2.71884C24.7091 2.46241 24.5116 2.24694 24.2672 2.09663L23.2848 3.6936C23.2321 3.6612 23.1894 3.61475 23.1618 3.55948L24.8377 2.71884ZM24.2672 2.09663C24.0229 1.94631 23.7414 1.86711 23.4546 1.86793L23.4599 3.7429C23.3981 3.74308 23.3374 3.726 23.2848 3.6936L24.2672 2.09663ZM22.5554 13.4436L23.6093 12.8929L22.7427 11.2302L21.6871 11.7819L22.5554 13.4436Z" fill="#71717A"/>
<path d="M3.75 16.5627C3.23224 16.5627 2.8125 16.9825 2.8125 17.5002C2.8125 18.018 3.23224 18.4377 3.75 18.4377V16.5627ZM26.2498 18.4377C26.7675 18.4377 27.1873 18.018 27.1873 17.5002C27.1873 16.9825 26.7675 16.5627 26.2498 16.5627V18.4377ZM3.75 18.4377H26.2498V16.5627H3.75V18.4377Z" fill="#71717A"/>
<path d="M3.75 26.5625C3.23224 26.5625 2.8125 26.9822 2.8125 27.5C2.8125 28.0178 3.23224 28.4375 3.75 28.4375V26.5625ZM26.2498 28.4375C26.7675 28.4375 27.1873 28.0178 27.1873 27.5C27.1873 26.9822 26.7675 26.5625 26.2498 26.5625V28.4375ZM3.75 28.4375H26.2498V26.5625H3.75V28.4375Z" fill="#71717A"/>
<path d="M3.75 21.5627C3.23224 21.5627 2.8125 21.9825 2.8125 22.5002C2.8125 23.018 3.23224 23.4377 3.75 23.4377V21.5627ZM21.2498 23.4377C21.7675 23.4377 22.1873 23.018 22.1873 22.5002C22.1873 21.9825 21.7675 21.5627 21.2498 21.5627V23.4377ZM3.75 23.4377H21.2498V21.5627H3.75V23.4377Z" fill="#71717A"/>
</svg>
