<svg width="30" height="30" viewBox="0 0 30 30" fill="none" xmlns="http://www.w3.org/2000/svg">
<rect width="30" height="30" fill="#FEFEFF"/>
<path d="M2.8125 5.625V19.6875C2.8125 20.7188 3.65625 21.5625 4.6875 21.5625H25.3125C26.3438 21.5625 27.1875 20.7188 27.1875 19.6875V5.625C27.1875 4.59375 26.3438 3.75 25.3125 3.75H4.6875C3.65625 3.75 2.8125 4.59375 2.8125 5.625Z" stroke="url(#paint0_linear_452_10)" stroke-width="2" stroke-miterlimit="10" stroke-linecap="round" stroke-linejoin="round"/>
<path d="M2.8125 17.8125H27.1875" stroke="url(#paint1_linear_452_10)" stroke-width="2" stroke-miterlimit="10" stroke-linecap="round" stroke-linejoin="round"/>
<path d="M8.4375 27.1875H21.5625" stroke="url(#paint2_linear_452_10)" stroke-width="2" stroke-miterlimit="10" stroke-linecap="round" stroke-linejoin="round"/>
<path d="M12.1875 21.5625C12.1875 23.5312 11.5313 25.875 10.5 27.1875" stroke="url(#paint3_linear_452_10)" stroke-width="2" stroke-miterlimit="10" stroke-linecap="round"/>
<path d="M19.5 27.1875C18.4687 25.875 17.8125 23.5312 17.8125 21.5625" stroke="url(#paint4_linear_452_10)" stroke-width="2" stroke-miterlimit="10" stroke-linecap="round"/>
<path d="M17.625 15C17.7187 14.7187 17.8125 14.4375 17.8125 14.0625C17.8125 12.4687 16.5938 11.25 15 11.25C13.4062 11.25 12.1875 12.4687 12.1875 14.0625C12.1875 14.4375 12.2812 14.7187 12.375 15" stroke="url(#paint5_linear_452_10)" stroke-width="2" stroke-miterlimit="10" stroke-linecap="round" stroke-linejoin="round"/>
<path d="M22.7812 15C22.7812 14.7187 22.875 14.3438 22.875 14.0625C22.875 13.4063 22.7813 12.8438 22.6875 12.2813C21.75 12.375 20.8125 12 20.3438 11.0625C19.875 10.2188 19.9687 9.1875 20.5312 8.4375C19.6875 7.59375 18.5625 6.9375 17.3438 6.5625C16.875 7.40625 16.0313 8.0625 15 8.0625C13.9688 8.0625 13.125 7.40625 12.75 6.5625C11.5313 6.9375 10.5 7.59375 9.5625 8.4375C10.125 9.1875 10.2187 10.2188 9.75 11.0625C9.28125 11.9063 8.25 12.375 7.40625 12.2813C7.3125 12.8438 7.21875 13.5 7.21875 14.0625C7.21875 14.3438 7.21875 14.7187 7.3125 15" stroke="url(#paint6_linear_452_10)" stroke-width="2" stroke-miterlimit="10" stroke-linecap="round" stroke-linejoin="round"/>
<defs>
<linearGradient id="paint0_linear_452_10" x1="15" y1="3.75" x2="15" y2="21.5625" gradientUnits="userSpaceOnUse">
<stop stop-color="#000AFF"/>
<stop offset="1" stop-color="#00C7FF"/>
</linearGradient>
<linearGradient id="paint1_linear_452_10" x1="15" y1="17.8125" x2="15" y2="18.8125" gradientUnits="userSpaceOnUse">
<stop stop-color="#000AFF"/>
<stop offset="1" stop-color="#00C7FF"/>
</linearGradient>
<linearGradient id="paint2_linear_452_10" x1="15" y1="27.1875" x2="15" y2="28.1875" gradientUnits="userSpaceOnUse">
<stop stop-color="#000AFF"/>
<stop offset="1" stop-color="#00C7FF"/>
</linearGradient>
<linearGradient id="paint3_linear_452_10" x1="11.3438" y1="21.5625" x2="11.3438" y2="27.1875" gradientUnits="userSpaceOnUse">
<stop stop-color="#000AFF"/>
<stop offset="1" stop-color="#00C7FF"/>
</linearGradient>
<linearGradient id="paint4_linear_452_10" x1="18.6562" y1="21.5625" x2="18.6562" y2="27.1875" gradientUnits="userSpaceOnUse">
<stop stop-color="#000AFF"/>
<stop offset="1" stop-color="#00C7FF"/>
</linearGradient>
<linearGradient id="paint5_linear_452_10" x1="15" y1="11.25" x2="15" y2="15" gradientUnits="userSpaceOnUse">
<stop stop-color="#000AFF"/>
<stop offset="1" stop-color="#00C7FF"/>
</linearGradient>
<linearGradient id="paint6_linear_452_10" x1="15.0469" y1="6.5625" x2="15.0469" y2="15" gradientUnits="userSpaceOnUse">
<stop stop-color="#000AFF"/>
<stop offset="1" stop-color="#00C7FF"/>
</linearGradient>
</defs>
</svg>
