<svg width="30" height="30" viewBox="0 0 30 30" fill="none" xmlns="http://www.w3.org/2000/svg">
<path d="M22.3395 14.8789V14.532C23.0505 14.4156 23.7049 14.0772 24.2167 13.553C24.8401 12.9146 25.1835 12.0714 25.1835 11.1789C25.1835 10.2864 24.8402 9.44322 24.2167 8.80484C23.7049 8.28072 23.0506 7.94234 22.3395 7.82586V7.47898C22.3395 6.56076 21.5924 5.81368 20.6742 5.81368H15.4682V4.66981C16.5415 4.44897 17.3512 3.49682 17.3512 2.35905C17.3513 1.05832 16.293 0 14.9922 0C13.6915 0 12.6333 1.05832 12.6333 2.35905C12.6333 3.49682 13.4429 4.44897 14.5162 4.66981V5.81374H9.31022C8.39194 5.81374 7.64493 6.56081 7.64493 7.47904V7.82843C6.94051 7.9475 6.29282 8.285 5.78522 8.80484C5.16178 9.44328 4.81836 10.2864 4.81836 11.1789C4.81836 12.0714 5.16172 12.9146 5.78522 13.553C6.29287 14.0728 6.94057 14.4103 7.64493 14.5294V14.8788C7.64493 15.797 8.392 16.5441 9.31022 16.5441H14.5162V17.7394H11.856C10.4243 17.7394 9.25954 18.9041 9.25954 20.3358V23.3937H7.88962C6.97133 23.3937 6.22438 24.1407 6.22438 25.0589V29.5239C6.22438 29.7868 6.43742 29.9999 6.70039 29.9999H9.73562H16.7167C16.9797 29.9999 17.1927 29.7868 17.1927 29.5239C17.1927 29.261 16.9797 29.0479 16.7167 29.0479H10.2115V23.9001V20.3358C10.2115 19.4291 10.9492 18.6915 11.8559 18.6915H18.1286C19.0353 18.6915 19.7729 19.4291 19.7729 20.3358V23.9002V29.048H18.2715C18.0085 29.048 17.7955 29.2611 17.7955 29.524C17.7955 29.7869 18.0085 30 18.2715 30H20.2489H23.284C23.547 30 23.7601 29.7869 23.7601 29.524V25.059C23.7601 24.1407 23.013 23.3937 22.0947 23.3937H20.725V20.3358C20.725 18.9041 19.5602 17.7395 18.1286 17.7395H15.4683V16.5442H20.6743V16.5442C21.5926 16.5442 22.3395 15.7971 22.3395 14.8789ZM22.3395 8.79453C23.4326 9.04326 24.2316 10.0108 24.2316 11.179C24.2316 12.3471 23.4326 13.3146 22.3395 13.5634V8.79453ZM7.64487 13.5591C6.56088 13.3039 5.77033 12.3409 5.77033 11.179C5.77033 10.0171 6.56088 9.05404 7.64487 8.79887V13.5591ZM9.25948 29.048H7.17635V25.0591C7.17635 24.6658 7.49633 24.3459 7.88956 24.3459H9.25948V29.048ZM20.725 24.3458H22.0947C22.488 24.3458 22.808 24.6658 22.808 25.059V29.048H20.725V24.3458ZM13.5853 2.35905C13.5853 1.58321 14.2165 0.952033 14.9922 0.952033C15.7681 0.952033 16.3993 1.58321 16.3993 2.35905C16.3993 3.13489 15.7681 3.76606 14.9922 3.76606C14.2164 3.76606 13.5853 3.13495 13.5853 2.35905ZM9.31016 15.5921C8.91682 15.5921 8.5969 15.2721 8.5969 14.8789V14.2387C8.61038 14.1943 8.61747 14.1478 8.61747 14.1006V8.25722C8.61747 8.21 8.61038 8.16353 8.5969 8.11918V7.47898C8.5969 7.0857 8.91688 6.76578 9.31011 6.76578H20.6743C21.0676 6.76578 21.3875 7.08576 21.3875 7.47898V8.20484C21.3856 8.22218 21.3844 8.2397 21.3844 8.25728V14.1007C21.3844 14.1183 21.3856 14.1358 21.3875 14.1531V14.879C21.3875 15.2723 21.0675 15.5922 20.6743 15.5922L9.31016 15.5921Z" fill="white"/>
<path d="M13.6748 9.95665C13.6748 9.05665 12.9425 8.3244 12.0423 8.3244C11.1423 8.3244 10.4102 9.05665 10.4102 9.95665C10.4102 10.8567 11.1423 11.5889 12.0423 11.5889C12.9425 11.5889 13.6748 10.8567 13.6748 9.95665ZM12.0423 10.6369C11.6672 10.6369 11.3621 10.3317 11.3621 9.95665C11.3621 9.58159 11.6672 9.27643 12.0423 9.27643C12.4175 9.27643 12.7227 9.58159 12.7227 9.95665C12.7227 10.3317 12.4175 10.6369 12.0423 10.6369Z" fill="white"/>
<path d="M17.9409 8.3244C17.0408 8.3244 16.3086 9.05665 16.3086 9.95665C16.3086 10.8567 17.0408 11.5889 17.9409 11.5889C18.841 11.5889 19.5732 10.8567 19.5732 9.95665C19.5732 9.05665 18.841 8.3244 17.9409 8.3244ZM17.9409 10.6369C17.5658 10.6369 17.2606 10.3317 17.2606 9.95665C17.2606 9.58159 17.5658 9.27643 17.9409 9.27643C18.316 9.27643 18.6211 9.58159 18.6211 9.95665C18.6211 10.3317 18.316 10.6369 17.9409 10.6369Z" fill="white"/>
<path d="M16.6883 12.4214C16.4335 12.3572 16.1747 12.512 16.1106 12.767C15.9663 13.3412 15.4511 13.7423 14.8581 13.7423C14.2622 13.7423 13.7466 13.3389 13.6043 12.7614C13.5414 12.5062 13.2834 12.3502 13.0282 12.4132C12.773 12.476 12.6171 12.734 12.6799 12.9893C12.9273 13.9931 13.8231 14.6943 14.8581 14.6943C15.8883 14.6943 16.7831 13.9972 17.0339 12.999C17.098 12.7441 16.9433 12.4855 16.6883 12.4214Z" fill="white"/>
<path d="M14.9596 20.5494C13.331 20.5494 12.0059 21.8744 12.0059 23.5031C12.0059 25.1317 13.3309 26.4568 14.9596 26.4568C16.5881 26.4568 17.9132 25.1318 17.9132 23.5031C17.9132 21.8744 16.5882 20.5494 14.9596 20.5494ZM14.9596 25.5047C13.8558 25.5047 12.9579 24.6068 12.9579 23.5032C12.9579 22.3994 13.8558 21.5015 14.9596 21.5015C16.0633 21.5015 16.9611 22.3994 16.9611 23.5032C16.9611 24.6068 16.0632 25.5047 14.9596 25.5047Z" fill="white"/>
</svg>
