<svg width="30" height="30" viewBox="0 0 30 30" fill="none" xmlns="http://www.w3.org/2000/svg">
<g clip-path="url(#clip0_287_141)">
<path d="M27.1875 0H2.8125C2.06658 0 1.35121 0.296316 0.823762 0.823762C0.296316 1.35121 0 2.06658 0 2.8125L0 27.1875C0 27.9334 0.296316 28.6488 0.823762 29.1762C1.35121 29.7037 2.06658 30 2.8125 30H27.1875C27.9334 30 28.6488 29.7037 29.1762 29.1762C29.7037 28.6488 30 27.9334 30 27.1875V2.8125C30 2.06658 29.7037 1.35121 29.1762 0.823762C28.6488 0.296316 27.9334 0 27.1875 0ZM28.125 27.1875C28.125 27.4361 28.0262 27.6746 27.8504 27.8504C27.6746 28.0262 27.4361 28.125 27.1875 28.125H2.8125C2.56386 28.125 2.3254 28.0262 2.14959 27.8504C1.97377 27.6746 1.875 27.4361 1.875 27.1875V9.375H28.125V27.1875ZM28.125 7.5H1.875V2.8125C1.875 2.56386 1.97377 2.3254 2.14959 2.14959C2.3254 1.97377 2.56386 1.875 2.8125 1.875H27.1875C27.4361 1.875 27.6746 1.97377 27.8504 2.14959C28.0262 2.3254 28.125 2.56386 28.125 2.8125V7.5Z" fill="url(#paint0_linear_287_141)"/>
<path d="M5.625 3.75H3.75V5.625H5.625V3.75Z" fill="url(#paint1_linear_287_141)"/>
<path d="M9.375 3.75H7.5V5.625H9.375V3.75Z" fill="url(#paint2_linear_287_141)"/>
<path d="M26.25 3.75H24.375V5.625H26.25V3.75Z" fill="url(#paint3_linear_287_141)"/>
<path d="M7.5 17.8125H22.5C22.7486 17.8125 22.9871 17.7137 23.1629 17.5379C23.3387 17.3621 23.4375 17.1236 23.4375 16.875V13.125C23.4375 12.8764 23.3387 12.6379 23.1629 12.4621C22.9871 12.2863 22.7486 12.1875 22.5 12.1875H7.5C7.25136 12.1875 7.0129 12.2863 6.83709 12.4621C6.66127 12.6379 6.5625 12.8764 6.5625 13.125V16.875C6.5625 17.1236 6.66127 17.3621 6.83709 17.5379C7.0129 17.7137 7.25136 17.8125 7.5 17.8125ZM14.0625 14.0625H21.5625V15.9375H14.0625V14.0625Z" fill="url(#paint4_linear_287_141)"/>
<path d="M7.5 25.3125H22.5C22.7486 25.3125 22.9871 25.2137 23.1629 25.0379C23.3387 24.8621 23.4375 24.6236 23.4375 24.375V20.625C23.4375 20.3764 23.3387 20.1379 23.1629 19.9621C22.9871 19.7863 22.7486 19.6875 22.5 19.6875H7.5C7.25136 19.6875 7.0129 19.7863 6.83709 19.9621C6.66127 20.1379 6.5625 20.3764 6.5625 20.625V24.375C6.5625 24.6236 6.66127 24.8621 6.83709 25.0379C7.0129 25.2137 7.25136 25.3125 7.5 25.3125ZM8.4375 21.5625H15.9375V23.4375H8.4375V21.5625Z" fill="url(#paint5_linear_287_141)"/>
</g>
<defs>
<linearGradient id="paint0_linear_287_141" x1="0" y1="0" x2="32.6186" y2="3.18541" gradientUnits="userSpaceOnUse">
<stop stop-color="#0047FF"/>
<stop offset="1" stop-color="#00C7FF"/>
</linearGradient>
<linearGradient id="paint1_linear_287_141" x1="3.75" y1="3.75" x2="5.78866" y2="3.94909" gradientUnits="userSpaceOnUse">
<stop stop-color="#0047FF"/>
<stop offset="1" stop-color="#00C7FF"/>
</linearGradient>
<linearGradient id="paint2_linear_287_141" x1="7.5" y1="3.75" x2="9.53866" y2="3.94909" gradientUnits="userSpaceOnUse">
<stop stop-color="#0047FF"/>
<stop offset="1" stop-color="#00C7FF"/>
</linearGradient>
<linearGradient id="paint3_linear_287_141" x1="24.375" y1="3.75" x2="26.4137" y2="3.94909" gradientUnits="userSpaceOnUse">
<stop stop-color="#0047FF"/>
<stop offset="1" stop-color="#00C7FF"/>
</linearGradient>
<linearGradient id="paint4_linear_287_141" x1="6.5625" y1="12.1875" x2="23.6213" y2="17.1852" gradientUnits="userSpaceOnUse">
<stop stop-color="#0047FF"/>
<stop offset="1" stop-color="#00C7FF"/>
</linearGradient>
<linearGradient id="paint5_linear_287_141" x1="6.5625" y1="19.6875" x2="23.6213" y2="24.6852" gradientUnits="userSpaceOnUse">
<stop stop-color="#0047FF"/>
<stop offset="1" stop-color="#00C7FF"/>
</linearGradient>
<clipPath id="clip0_287_141">
<rect width="30" height="30" fill="white"/>
</clipPath>
</defs>
</svg>
