<svg width="111" height="64" viewBox="0 0 111 64" fill="none" xmlns="http://www.w3.org/2000/svg">
<path d="M55.5262 63.7998C51.5474 63.7991 47.6381 62.7557 44.1877 60.7735L3.72178 37.4049C2.7907 36.8612 2.01826 36.0829 1.48144 35.1475C0.944614 34.2122 0.662109 33.1524 0.662109 32.0738C0.662109 30.9952 0.944614 29.9355 1.48144 29.0002C2.01826 28.0648 2.7907 27.2865 3.72178 26.7427L44.1877 3.37423C47.632 1.38478 51.539 0.337402 55.5162 0.337402C59.4933 0.337402 63.4004 1.38478 66.8447 3.37423L107.311 26.7427C108.242 27.2865 109.014 28.0648 109.551 29.0002C110.088 29.9355 110.37 30.9952 110.37 32.0738C110.37 33.1524 110.088 34.2122 109.551 35.1475C109.014 36.0829 108.242 36.8612 107.311 37.4049L66.8447 60.7735C63.4005 62.7532 59.4983 63.7965 55.5262 63.7998ZM46.0508 57.647C48.9313 59.3014 52.1947 60.1721 55.5162 60.1721C58.8376 60.1721 62.1011 59.3014 64.9816 57.647L105.448 34.2584C105.804 34.0571 106.103 33.7666 106.313 33.4152C106.524 33.0639 106.64 32.6638 106.65 32.2542C106.653 31.8284 106.544 31.4092 106.333 31.0394C106.122 30.6697 105.816 30.3627 105.448 30.1498L65.0617 6.60091C62.1812 4.94644 58.9177 4.07582 55.5963 4.07582C52.2749 4.07582 49.0113 4.94644 46.1309 6.60091L5.66495 29.9695C5.29632 30.1824 4.99078 30.4893 4.7796 30.8591C4.56842 31.2288 4.45917 31.648 4.46298 32.0738C4.47263 32.4834 4.58846 32.8835 4.79916 33.2349C5.00987 33.5862 5.30824 33.8767 5.66495 34.078L46.0508 57.647Z" fill="url(#paint0_linear_50_1050)"/>
<defs>
<linearGradient id="paint0_linear_50_1050" x1="0.65675" y1="32.0739" x2="110.376" y2="32.0739" gradientUnits="userSpaceOnUse">
<stop stop-color="#E39A65"/>
<stop offset="1" stop-color="#FE4C1C"/>
</linearGradient>
</defs>
</svg>
