<svg width="30" height="30" viewBox="0 0 30 30" fill="none" xmlns="http://www.w3.org/2000/svg">
<path d="M8.4 20.6592H0V21.5967H8.4V20.6592Z" fill="#888888"/>
<path d="M7.19901 24.2845H1.19995V25.222H7.19901V24.2845Z" fill="#888888"/>
<path d="M19.201 20.6592H10.8V21.5967H19.201V20.6592Z" fill="#888888"/>
<path d="M18 24.2845H12V25.222H18V24.2845Z" fill="#888888"/>
<path d="M30.0001 20.6592H21.6001V21.5967H30.0001V20.6592Z" fill="#888888"/>
<path d="M28.7991 24.2845H22.8V25.222H28.7991V24.2845Z" fill="#888888"/>
<path d="M4.2 17.5055C4.86274 17.5055 5.4 16.9645 5.4 16.2971C5.4 15.6297 4.86274 15.0886 4.2 15.0886C3.53726 15.0886 3 15.6297 3 16.2971C3 16.9645 3.53726 17.5055 4.2 17.5055Z" fill="#888888"/>
<path d="M15 17.5055C15.6628 17.5055 16.2 16.9645 16.2 16.2971C16.2 15.6297 15.6628 15.0886 15 15.0886C14.3373 15.0886 13.8 15.6297 13.8 16.2971C13.8 16.9645 14.3373 17.5055 15 17.5055Z" fill="#888888"/>
<path d="M25.8001 17.5055C26.4628 17.5055 27.0001 16.9645 27.0001 16.2971C27.0001 15.6297 26.4628 15.0886 25.8001 15.0886C25.1374 15.0886 24.6001 15.6297 24.6001 16.2971C24.6001 16.9645 25.1374 17.5055 25.8001 17.5055Z" fill="#888888"/>
<path d="M4.5375 4.77795C2.29031 4.77795 0.46875 6.60608 0.46875 8.85983C0.46875 11.1136 2.29031 12.9417 4.5375 12.9417C6.78469 12.9417 8.60625 11.1145 8.60625 8.85983C8.60625 6.60514 6.78469 4.77795 4.5375 4.77795ZM4.5375 12.0042C2.81063 12.0042 1.40625 10.5942 1.40625 8.85983C1.40625 7.12545 2.81063 5.71545 4.5375 5.71545C6.26438 5.71545 7.66875 7.12639 7.66875 8.85983C7.66875 10.5933 6.26438 12.0042 4.5375 12.0042Z" fill="#888888"/>
<path d="M6.05433 7.15637L3.80526 9.66231L2.89589 8.75012L2.2312 9.412L3.4912 10.6757C3.57933 10.7639 3.69839 10.8136 3.82308 10.8136C3.82683 10.8136 3.83151 10.8136 3.83526 10.8136C3.96464 10.8098 4.08651 10.7536 4.17183 10.6579L6.75183 7.78262L6.05433 7.15637Z" fill="#888888"/>
<path d="M14.9999 4.77795C12.7527 4.77795 10.9312 6.60514 10.9312 8.85983C10.9312 11.1145 12.7527 12.9417 14.9999 12.9417C17.2471 12.9417 19.0687 11.1145 19.0687 8.85983C19.0687 6.60514 17.2471 4.77795 14.9999 4.77795ZM14.9999 12.0042C13.273 12.0042 11.8687 10.5933 11.8687 8.85983C11.8687 7.12639 13.273 5.71545 14.9999 5.71545C16.7268 5.71545 18.1312 7.12639 18.1312 8.85983C18.1312 10.5933 16.7268 12.0042 14.9999 12.0042Z" fill="#888888"/>
<path d="M16.517 7.15637L14.2679 9.66325L13.3585 8.75012L12.6938 9.412L13.9538 10.6757C14.0429 10.7639 14.161 10.8136 14.2857 10.8136C14.2895 10.8136 14.2942 10.8136 14.2979 10.8136C14.4273 10.8098 14.5492 10.7536 14.6345 10.6579L17.2145 7.78262L16.517 7.15637Z" fill="#888888"/>
<path d="M25.4625 4.77795C23.2154 4.77795 21.3938 6.60514 21.3938 8.85983C21.3938 11.1145 23.2154 12.9417 25.4625 12.9417C27.7097 12.9417 29.5313 11.1145 29.5313 8.85983C29.5313 6.60514 27.7097 4.77795 25.4625 4.77795ZM25.4625 12.0042C23.7357 12.0042 22.3313 10.5933 22.3313 8.85983C22.3313 7.12639 23.7357 5.71545 25.4625 5.71545C27.1894 5.71545 28.5938 7.12639 28.5938 8.85983C28.5938 10.5933 27.1894 12.0042 25.4625 12.0042Z" fill="#888888"/>
<path d="M26.9784 7.15637L24.7293 9.66325L23.82 8.75012L23.1553 9.412L24.4153 10.6757C24.5043 10.7639 24.6234 10.8136 24.7471 10.8136C24.7509 10.8136 24.7556 10.8136 24.7593 10.8136C24.8887 10.8098 25.0106 10.7536 25.0959 10.6579L27.6759 7.78262L26.9784 7.15637Z" fill="#888888"/>
</svg>
